<?xml version="1.0" encoding="UTF-8" standalone="no"?>
<svg
   xmlns:dc="http://purl.org/dc/elements/1.1/"
   xmlns:cc="http://creativecommons.org/ns#"
   xmlns:rdf="http://www.w3.org/1999/02/22-rdf-syntax-ns#"
   xmlns:svg="http://www.w3.org/2000/svg"
   xmlns="http://www.w3.org/2000/svg"
   id="svg2"
   viewBox="0 0 1133.86 850.39"
   height="850.39px"
   width="1133.86px"
   version="1.1">
  <metadata
     id="metadata34">
    <rdf:RDF>
      <cc:Work
         rdf:about="">
        <dc:format>image/svg+xml</dc:format>
        <dc:type
           rdf:resource="http://purl.org/dc/dcmitype/StillImage" />
      </cc:Work>
    </rdf:RDF>
  </metadata>
  <defs
     id="defs32" />
  <g
     id="g4"
     transform="matrix(1,0,0,-1,0,850.39)">
    <g
       id="g10" />
    <g
       id="g12"
       transform="scale(1.0000013,1.0000013)">
      <g
         id="text14"
         style=""
         transform="matrix(1,0,0,-1,0,751.159)">
        <path
           id="path37"
           style="font-size:79.70230103px;font-family:g_font_1;fill:#000000"
           d="m 241.05735,264.86671 7.86126,0 0,51.48738 28.29276,0 0,6.61591 -36.15402,0 0,-58.10329 z" />
        <path
           id="path39"
           style="font-size:79.70230103px;font-family:g_font_1;fill:#000000"
           d="m 277.31322,279.38281 7.16076,0 0,43.58719 -7.16076,0 0,-43.58719 z m 0,-16.96788 7.16076,0 0,9.0677 -7.16076,0 0,-9.0677 z" />
        <path
           id="path41"
           style="font-size:79.70230103px;font-family:g_font_1;fill:#000000"
           d="m 294.50515,262.41493 7.16075,0 0,60.55507 -7.16075,0 0,-60.55507 z" />
        <path
           id="path43"
           style="font-size:79.70230103px;font-family:g_font_1;fill:#000000"
           d="m 311.17687,262.41493 7.16075,0 0,60.55507 -7.16075,0 0,-60.55507 z" />
        <path
           id="path45"
           style="font-size:79.70230103px;font-family:g_font_1;fill:#000000"
           d="m 365.13149,299.38621 0,3.50255 -32.9239,0 q 0.467,7.39425 4.43655,11.28597 4.00847,3.85279 11.1303,3.85279 4.12522,0 7.97802,-1.01184 3.89171,-1.01185 7.70559,-3.03554 l 0,6.77158 q -3.8528,1.63452 -7.90018,2.4907 -4.04738,0.85618 -8.21152,0.85618 -10.42979,0 -16.53978,-6.07108 -6.07107,-6.07107 -6.07107,-16.42303 0,-10.70221 5.75973,-16.96787 5.79866,-6.30458 15.60578,-6.30458 8.79527,0 13.89341,5.6819 5.13707,5.64299 5.13707,15.37227 z m -7.16076,-2.10152 q -0.0778,-5.87649 -3.30795,-9.37903 -3.19121,-3.50254 -8.48394,-3.50254 -5.99324,0 -9.61253,3.38579 -3.58038,3.38579 -4.12522,9.5347 l 25.52964,-0.0389 z" />
        <path
           id="path47"
           style="font-size:79.70230103px;font-family:g_font_1;fill:#000000"
           d="m 396.97554,271.32696 0,21.83251 9.88495,0 q 5.48732,0 8.48394,-2.84095 2.99662,-2.84095 2.99662,-8.09476 0,-5.2149 -2.99662,-8.05585 -2.99662,-2.84095 -8.48394,-2.84095 l -9.88495,0 z m -7.86126,-6.46025 17.74621,0 q 9.7682,0 14.7496,4.43656 5.02031,4.39763 5.02031,12.92049 0,8.60068 -5.02031,12.99832 -4.9814,4.39764 -14.7496,4.39764 l -9.88495,0 0,23.35028 -7.86126,0 0,-58.10329 z" />
        <path
           id="path49"
           style="font-size:79.70230103px;font-family:g_font_1;fill:#000000"
           d="m 468.41429,299.38621 0,3.50255 -32.9239,0 q 0.46701,7.39425 4.43656,11.28597 4.00846,3.85279 11.1303,3.85279 4.12522,0 7.97801,-1.01184 3.89172,-1.01185 7.7056,-3.03554 l 0,6.77158 q -3.8528,1.63452 -7.90018,2.4907 -4.04739,0.85618 -8.21152,0.85618 -10.42979,0 -16.53978,-6.07108 -6.07108,-6.07107 -6.07108,-16.42303 0,-10.70221 5.75974,-16.96787 5.79865,-6.30458 15.60577,-6.30458 8.79528,0 13.89342,5.6819 5.13706,5.64299 5.13706,15.37227 z m -7.16075,-2.10152 q -0.0778,-5.87649 -3.30796,-9.37903 -3.1912,-3.50254 -8.48393,-3.50254 -5.99324,0 -9.61254,3.38579 -3.58037,3.38579 -4.12521,9.5347 l 25.52964,-0.0389 z" />
        <path
           id="path51"
           style="font-size:79.70230103px;font-family:g_font_1;fill:#000000"
           d="m 477.70446,267.00716 0,12.37565 14.7496,0 0,5.56515 -14.7496,0 0,23.66162 q 0,5.33164 1.43994,6.84941 1.47885,1.51777 5.95432,1.51777 l 7.35534,0 0,5.99324 -7.35534,0 q -8.28935,0 -11.44164,-3.07445 -3.15229,-3.11337 -3.15229,-11.28597 l 0,-23.66162 -5.25381,0 0,-5.56515 5.25381,0 0,-12.37565 7.19967,0 z" />
        <path
           id="path53"
           style="font-size:79.70230103px;font-family:g_font_1;fill:#000000"
           d="m 531.72847,299.38621 0,3.50255 -32.9239,0 q 0.46701,7.39425 4.43656,11.28597 4.00846,3.85279 11.1303,3.85279 4.12521,0 7.97801,-1.01184 3.89172,-1.01185 7.7056,-3.03554 l 0,6.77158 q -3.8528,1.63452 -7.90018,2.4907 -4.04739,0.85618 -8.21152,0.85618 -10.42979,0 -16.53978,-6.07108 -6.07108,-6.07107 -6.07108,-16.42303 0,-10.70221 5.75974,-16.96787 5.79865,-6.30458 15.60577,-6.30458 8.79527,0 13.89342,5.6819 5.13706,5.64299 5.13706,15.37227 z m -7.16075,-2.10152 q -0.0778,-5.87649 -3.30796,-9.37903 -3.1912,-3.50254 -8.48393,-3.50254 -5.99324,0 -9.61254,3.38579 -3.58037,3.38579 -4.12521,9.5347 l 25.52964,-0.0389 z" />
        <path
           id="path55"
           style="font-size:79.70230103px;font-family:g_font_1;fill:#000000"
           d="m 559.19291,286.07655 q -1.20643,-0.70051 -2.64636,-1.01184 -1.40102,-0.35026 -3.11337,-0.35026 -6.07108,0 -9.34012,3.96955 -3.23012,3.93063 -3.23012,11.32489 l 0,22.96111 -7.19967,0 0,-43.58719 7.19967,0 0,6.77158 q 2.2572,-3.96955 5.87649,-5.87649 3.61929,-1.94586 8.79527,-1.94586 0.73943,0 1.63452,0.11675 0.8951,0.0778 1.98478,0.27242 l 0.0389,7.35534 z" />
        <path
           id="path57"
           style="font-size:79.70230103px;font-family:g_font_1;fill:#000000"
           d="m 581.23787,264.86671 36.73778,0 0,6.61592 -28.87652,0 0,17.20137 27.67009,0 0,6.61592 -27.67009,0 0,21.05417 29.57703,0 0,6.61591 -37.43829,0 0,-58.10329 z" />
        <path
           id="path59"
           style="font-size:79.70230103px;font-family:g_font_1;fill:#000000"
           d="m 650.9715,285.99872 0,-23.58379 7.16076,0 0,60.55507 -7.16076,0 0,-6.53808 q -2.25719,3.89172 -5.72082,5.79866 -3.4247,1.86802 -8.25043,1.86802 -7.90018,0 -12.88157,-6.30458 -4.94248,-6.30457 -4.94248,-16.5787 0,-10.27412 4.94248,-16.5787 4.98139,-6.30458 12.88157,-6.30458 4.82573,0 8.25043,1.90694 3.46363,1.86803 5.72082,5.75974 z m -24.40104,15.2166 q 0,7.90018 3.23012,12.41457 3.26904,4.47547 8.95094,4.47547 5.6819,0 8.95094,-4.47547 3.26904,-4.51439 3.26904,-12.41457 0,-7.90018 -3.26904,-12.37565 -3.26904,-4.51439 -8.95094,-4.51439 -5.6819,0 -8.95094,4.51439 -3.23012,4.47547 -3.23012,12.37565 z" />
        <path
           id="path61"
           style="font-size:79.70230103px;font-family:g_font_1;fill:#000000"
           d="m 692.81928,285.99872 0,-23.58379 7.16076,0 0,60.55507 -7.16076,0 0,-6.53808 q -2.25719,3.89172 -5.72082,5.79866 -3.42471,1.86802 -8.25043,1.86802 -7.90018,0 -12.88157,-6.30458 -4.94248,-6.30457 -4.94248,-16.5787 0,-10.27412 4.94248,-16.5787 4.98139,-6.30458 12.88157,-6.30458 4.82572,0 8.25043,1.90694 3.46363,1.86803 5.72082,5.75974 z m -24.40104,15.2166 q 0,7.90018 3.23012,12.41457 3.26904,4.47547 8.95094,4.47547 5.6819,0 8.95094,-4.47547 3.26904,-4.51439 3.26904,-12.41457 0,-7.90018 -3.26904,-12.37565 -3.26904,-4.51439 -8.95094,-4.51439 -5.6819,0 -8.95094,4.51439 -3.23012,4.47547 -3.23012,12.37565 z" />
        <path
           id="path63"
           style="font-size:79.70230103px;font-family:g_font_1;fill:#000000"
           d="m 743.26775,299.38621 0,3.50255 -32.9239,0 q 0.467,7.39425 4.43655,11.28597 4.00847,3.85279 11.1303,3.85279 4.12522,0 7.97802,-1.01184 3.89171,-1.01185 7.70559,-3.03554 l 0,6.77158 q -3.8528,1.63452 -7.90018,2.4907 -4.04738,0.85618 -8.21151,0.85618 -10.4298,0 -16.53979,-6.07108 -6.07107,-6.07107 -6.07107,-16.42303 0,-10.70221 5.75973,-16.96787 5.79866,-6.30458 15.60578,-6.30458 8.79527,0 13.89342,5.6819 5.13706,5.64299 5.13706,15.37227 z m -7.16076,-2.10152 q -0.0778,-5.87649 -3.30795,-9.37903 -3.19121,-3.50254 -8.48394,-3.50254 -5.99324,0 -9.61253,3.38579 -3.58038,3.38579 -4.12522,9.5347 l 25.52964,-0.0389 z" />
        <path
           id="path65"
           style="font-size:79.70230103px;font-family:g_font_1;fill:#000000"
           d="m 770.73222,286.07655 q -1.20643,-0.70051 -2.64637,-1.01184 -1.40101,-0.35026 -3.11337,-0.35026 -6.07107,0 -9.34011,3.96955 -3.23012,3.93063 -3.23012,11.32489 l 0,22.96111 -7.19967,0 0,-43.58719 7.19967,0 0,6.77158 q 2.25719,-3.96955 5.87649,-5.87649 3.61929,-1.94586 8.79527,-1.94586 0.73943,0 1.63452,0.11675 0.89509,0.0778 1.98477,0.27242 l 0.0389,7.35534 z" />
        <path
           id="path67"
           style="font-size:79.70230103px;font-family:g_font_1;fill:#000000"
           d="m 770.72888,262.41493 7.19967,0 0,35.76485 21.36551,-18.79697 9.14553,0 -23.11678,20.39258 24.08971,23.19461 -9.34011,0 -22.14386,-21.28767 0,21.28767 -7.19967,0 0,-60.55507 z" />
        <path
           id="path69"
           style="font-size:79.70230103px;font-family:g_font_1;fill:#000000"
           d="m 825.11473,284.40312 q -5.75974,0 -9.10661,4.51438 -3.34687,4.47548 -3.34687,12.29782 0,7.82235 3.30795,12.33673 3.34688,4.47547 9.14553,4.47547 5.72082,0 9.06769,-4.51438 3.34688,-4.51439 3.34688,-12.29782 0,-7.74451 -3.34688,-12.2589 -3.34687,-4.5533 -9.06769,-4.5533 z m 0,-6.07108 q 9.34011,0 14.67176,6.07108 5.33165,6.07107 5.33165,16.8122 0,10.70221 -5.33165,16.8122 -5.33165,6.07108 -14.67176,6.07108 -9.37903,0 -14.71068,-6.07108 -5.29273,-6.10999 -5.29273,-16.8122 0,-10.74113 5.29273,-16.8122 5.33165,-6.07108 14.71068,-6.07108 z" />
        <path
           id="path71"
           style="font-size:79.70230103px;font-family:g_font_1;fill:#000000"
           d="m 856.51474,316.43192 0,23.11678 -7.19968,0 0,-60.16589 7.19968,0 0,6.61591 q 2.25719,-3.89171 5.6819,-5.75974 3.46362,-1.90694 8.25043,-1.90694 7.9391,0 12.88157,6.30458 4.9814,6.30458 4.9814,16.5787 0,10.27413 -4.9814,16.5787 -4.94247,6.30458 -12.88157,6.30458 -4.78681,0 -8.25043,-1.86802 -3.42471,-1.90694 -5.6819,-5.79866 z m 24.36212,-15.2166 q 0,-7.90018 -3.26903,-12.37565 -3.23013,-4.51439 -8.91203,-4.51439 -5.6819,0 -8.95094,4.51439 -3.23012,4.47547 -3.23012,12.37565 0,7.90018 3.23012,12.41457 3.26904,4.47547 8.95094,4.47547 5.6819,0 8.91203,-4.47547 3.26903,-4.51439 3.26903,-12.41457 z" />
        <path
           id="path73"
           style="font-size:36.33549881px;font-family:g_font_1;fill:#000000"
           d="m 420.66637,370.89303 -4.86129,13.18226 9.74032,0 -4.87903,-13.18226 z m -2.02258,-3.53065 4.0629,0 10.09517,26.48872 -3.72581,0 -2.4129,-6.79516 -11.94033,0 -2.41291,6.79516 -3.77903,0 10.11291,-26.48872 z" />
        <path
           id="path75"
           style="font-size:36.33549881px;font-family:g_font_1;fill:#000000"
           d="m 443.61398,377.03174 q -0.55,-0.31935 -1.20645,-0.46129 -0.63871,-0.15968 -1.41936,-0.15968 -2.76774,0 -4.25807,1.80968 -1.47258,1.79194 -1.47258,5.16291 l 0,10.46774 -3.28226,0 0,-19.87097 3.28226,0 0,3.0871 q 1.02904,-1.80968 2.67904,-2.67904 1.65,-0.88709 4.00968,-0.88709 0.33709,0 0.74516,0.0532 0.40806,0.0355 0.90484,0.1242 l 0.0177,3.35322 z" />
        <path
           id="path77"
           style="font-size:36.33549881px;font-family:g_font_1;fill:#000000"
           d="m 455.35543,377.03174 q -0.55,-0.31935 -1.20645,-0.46129 -0.63871,-0.15968 -1.41935,-0.15968 -2.76775,0 -4.25807,1.80968 -1.47258,1.79194 -1.47258,5.16291 l 0,10.46774 -3.28226,0 0,-19.87097 3.28226,0 0,3.0871 q 1.02903,-1.80968 2.67903,-2.67904 1.65,-0.88709 4.00968,-0.88709 0.3371,0 0.74516,0.0532 0.40807,0.0355 0.90484,0.1242 l 0.0177,3.35322 z" />
        <path
           id="path79"
           style="font-size:36.33549881px;font-family:g_font_1;fill:#000000"
           d="m 456.04338,389.34465 3.74355,0 0,4.50645 -3.74355,0 0,-4.50645 z" />
        <path
           id="path81"
           style="font-size:36.33549881px;font-family:g_font_1;fill:#000000"
           d="m 464.59358,389.34465 3.74355,0 0,4.50645 -3.74355,0 0,-4.50645 z m 0,-14.28226 3.74355,0 0,4.50645 -3.74355,0 0,-4.50645 z" />
        <path
           id="path83"
           style="font-size:36.33549881px;font-family:g_font_1;fill:#000000"
           d="m 490.64311,370.89303 -4.86129,13.18226 9.74033,0 -4.87904,-13.18226 z m -2.02258,-3.53065 4.06291,0 10.09516,26.48872 -3.7258,0 -2.41291,-6.79516 -11.94033,0 -2.4129,6.79516 -3.77903,0 10.1129,-26.48872 z" />
        <path
           id="path85"
           style="font-size:36.33549881px;font-family:g_font_1;fill:#000000"
           d="m 518.59395,381.85755 0,11.99355 -3.26452,0 0,-11.8871 q 0,-2.82097 -1.1,-4.22258 -1.1,-1.40161 -3.3,-1.40161 -2.64355,0 -4.16935,1.68548 -1.52581,1.68549 -1.52581,4.59516 l 0,11.23065 -3.28226,0 0,-19.87097 3.28226,0 0,3.0871 q 1.17097,-1.79194 2.75,-2.67904 1.59677,-0.88709 3.67258,-0.88709 3.4242,0 5.18065,2.12903 1.75645,2.11129 1.75645,6.22742 z" />
        <path
           id="path87"
           style="font-size:36.33549881px;font-family:g_font_1;fill:#000000"
           d="m 534.04664,376.99626 0,-10.75162 3.26452,0 0,27.60646 -3.26452,0 0,-2.98064 q -1.02904,1.77419 -2.60807,2.64355 -1.56129,0.85161 -3.76129,0.85161 -3.60161,0 -5.87258,-2.87419 -2.25323,-2.8742 -2.25323,-7.55807 0,-4.68387 2.25323,-7.55807 2.27097,-2.87419 5.87258,-2.87419 2.2,0 3.76129,0.86935 1.57903,0.85161 2.60807,2.62581 z m -11.1242,6.9371 q 0,3.60161 1.47258,5.65968 1.49032,2.04032 4.08065,2.04032 2.59032,0 4.08064,-2.04032 1.49033,-2.05807 1.49033,-5.65968 0,-3.60162 -1.49033,-5.64194 -1.49032,-2.05806 -4.08064,-2.05806 -2.59033,0 -4.08065,2.05806 -1.47258,2.04032 -1.47258,5.64194 z" />
        <path
           id="path89"
           style="font-size:36.33549881px;font-family:g_font_1;fill:#000000"
           d="m 551.53631,377.03174 q -0.55,-0.31935 -1.20645,-0.46129 -0.63871,-0.15968 -1.41936,-0.15968 -2.76774,0 -4.25806,1.80968 -1.47258,1.79194 -1.47258,5.16291 l 0,10.46774 -3.28226,0 0,-19.87097 3.28226,0 0,3.0871 q 1.02903,-1.80968 2.67903,-2.67904 1.65,-0.88709 4.00968,-0.88709 0.3371,0 0.74516,0.0532 0.40806,0.0355 0.90484,0.1242 l 0.0177,3.35322 z" />
        <path
           id="path91"
           style="font-size:36.33549881px;font-family:g_font_1;fill:#000000"
           d="m 568.75978,383.09949 0,1.59677 -15.00968,0 q 0.2129,3.37097 2.02258,5.14517 1.82742,1.75645 5.0742,1.75645 1.88064,0 3.63709,-0.46129 1.7742,-0.46129 3.51291,-1.38387 l 0,3.08709 q -1.75645,0.74517 -3.60162,1.13549 -1.84516,0.39032 -3.74355,0.39032 -4.75484,0 -7.54032,-2.76774 -2.76774,-2.76775 -2.76774,-7.4871 0,-4.87904 2.6258,-7.73549 2.64355,-2.87419 7.11452,-2.87419 4.00968,0 6.33388,2.59032 2.34193,2.57258 2.34193,7.00807 z m -3.26452,-0.95807 q -0.0355,-2.67903 -1.50806,-4.27581 -1.45484,-1.59677 -3.86774,-1.59677 -2.73226,0 -4.38226,1.54355 -1.63226,1.54355 -1.88065,4.34677 l 11.63871,-0.0177 z" />
        <path
           id="path93"
           style="font-size:36.33549881px;font-family:g_font_1;fill:#000000"
           d="m 578.83735,383.86239 q -3.95645,0 -5.48226,0.90484 -1.52581,0.90484 -1.52581,3.0871 0,1.73871 1.13549,2.76774 1.15322,1.01129 3.12258,1.01129 2.71452,0 4.34678,-1.91613 1.65,-1.93387 1.65,-5.12742 l 0,-0.72742 -3.24678,0 z m 6.51129,-1.34839 0,11.3371 -3.26451,0 0,-3.01613 q -1.11775,1.80968 -2.78549,2.67904 -1.66774,0.85161 -4.08065,0.85161 -3.05161,0 -4.86129,-1.70323 -1.79193,-1.72096 -1.79193,-4.59516 0,-3.35323 2.23548,-5.05645 2.25323,-1.70323 6.70646,-1.70323 l 4.57742,0 0,-0.31935 q 0,-2.25323 -1.49033,-3.47742 -1.47258,-1.24194 -4.15161,-1.24194 -1.70323,0 -3.31774,0.40806 -1.61452,0.40807 -3.10484,1.2242 l 0,-3.01613 q 1.79193,-0.69194 3.47742,-1.02903 1.68548,-0.35484 3.28226,-0.35484 4.31129,0 6.44032,2.23548 2.12903,2.23549 2.12903,6.77742 z" />
        <path
           id="path95"
           style="font-size:36.33549881px;font-family:g_font_1;fill:#000000"
           d="m 599.83932,374.56561 0,3.0871 q -1.38387,-0.70968 -2.8742,-1.06452 -1.49032,-0.35483 -3.0871,-0.35483 -2.43064,0 -3.65484,0.74516 -1.20645,0.74516 -1.20645,2.23548 0,1.13549 0.86936,1.79194 0.86935,0.63871 3.49516,1.22419 l 1.11774,0.24839 q 3.47742,0.74516 4.93226,2.11129 1.47258,1.34839 1.47258,3.77903 0,2.76775 -2.2,4.38226 -2.18226,1.61452 -6.01452,1.61452 -1.59677,0 -3.33548,-0.31935 -1.72097,-0.30162 -3.6371,-0.92258 l 0,-3.37097 q 1.80968,0.94032 3.56613,1.41935 1.75645,0.46129 3.47742,0.46129 2.30645,0 3.54839,-0.78064 1.24194,-0.79839 1.24194,-2.23549 0,-1.33064 -0.90484,-2.04032 -0.8871,-0.70968 -3.92097,-1.36613 l -1.13549,-0.26613 q -3.03387,-0.63871 -4.38226,-1.95161 -1.34838,-1.33065 -1.34838,-3.6371 0,-2.80323 1.98709,-4.32904 1.9871,-1.5258 5.64194,-1.5258 1.80968,0 3.40646,0.26613 1.59677,0.26612 2.94516,0.79838 z" />
        <path
           id="path97"
           style="font-size:36.33549881px;font-family:g_font_1;fill:#000000"
           d="m 613.36252,367.36238 3.58387,0 0,23.47259 12.89839,0 0,3.01613 -16.48226,0 0,-26.48872 z" />
        <path
           id="path99"
           style="font-size:36.33549881px;font-family:g_font_1;fill:#000000"
           d="m 638.92042,383.86239 q -3.95645,0 -5.48226,0.90484 -1.52581,0.90484 -1.52581,3.0871 0,1.73871 1.13549,2.76774 1.15322,1.01129 3.12258,1.01129 2.71452,0 4.34677,-1.91613 1.65001,-1.93387 1.65001,-5.12742 l 0,-0.72742 -3.24678,0 z m 6.51129,-1.34839 0,11.3371 -3.26451,0 0,-3.01613 q -1.11775,1.80968 -2.78549,2.67904 -1.66774,0.85161 -4.08065,0.85161 -3.05161,0 -4.86129,-1.70323 -1.79193,-1.72096 -1.79193,-4.59516 0,-3.35323 2.23548,-5.05645 2.25323,-1.70323 6.70645,-1.70323 l 4.57743,0 0,-0.31935 q 0,-2.25323 -1.49033,-3.47742 -1.47258,-1.24194 -4.15161,-1.24194 -1.70323,0 -3.31775,0.40806 -1.61451,0.40807 -3.10484,1.2242 l 0,-3.01613 q 1.79194,-0.69194 3.47743,-1.02903 1.68548,-0.35484 3.28225,-0.35484 4.3113,0 6.44033,2.23548 2.12903,2.23549 2.12903,6.77742 z" />
        <path
           id="path101"
           style="font-size:36.33549881px;font-family:g_font_1;fill:#000000"
           d="m 658.76947,377.03174 q -0.55,-0.31935 -1.20646,-0.46129 -0.63871,-0.15968 -1.41935,-0.15968 -2.76775,0 -4.25807,1.80968 -1.47258,1.79194 -1.47258,5.16291 l 0,10.46774 -3.28226,0 0,-19.87097 3.28226,0 0,3.0871 q 1.02903,-1.80968 2.67903,-2.67904 1.65,-0.88709 4.00968,-0.88709 0.3371,0 0.74516,0.0532 0.40807,0.0355 0.90484,0.1242 l 0.0177,3.35322 z" />
        <path
           id="path103"
           style="font-size:36.33549881px;font-family:g_font_1;fill:#000000"
           d="m 671.6639,374.56561 0,3.0871 q -1.38387,-0.70968 -2.87419,-1.06452 -1.49033,-0.35483 -3.0871,-0.35483 -2.43065,0 -3.65484,0.74516 -1.20645,0.74516 -1.20645,2.23548 0,1.13549 0.86935,1.79194 0.86936,0.63871 3.49517,1.22419 l 1.11774,0.24839 q 3.47742,0.74516 4.93226,2.11129 1.47258,1.34839 1.47258,3.77903 0,2.76775 -2.2,4.38226 -2.18226,1.61452 -6.01452,1.61452 -1.59678,0 -3.33549,-0.31935 -1.72096,-0.30162 -3.63709,-0.92258 l 0,-3.37097 q 1.80967,0.94032 3.56613,1.41935 1.75645,0.46129 3.47742,0.46129 2.30645,0 3.54839,-0.78064 1.24193,-0.79839 1.24193,-2.23549 0,-1.33064 -0.90484,-2.04032 -0.88709,-0.70968 -3.92097,-1.36613 l -1.13548,-0.26613 q -3.03387,-0.63871 -4.38226,-1.95161 -1.34839,-1.33065 -1.34839,-3.6371 0,-2.80323 1.9871,-4.32904 1.9871,-1.5258 5.64194,-1.5258 1.80968,0 3.40645,0.26613 1.59677,0.26612 2.94516,0.79838 z" />
        <path
           id="path105"
           style="font-size:36.33549881px;font-family:g_font_1;fill:#000000"
           d="m 692.33071,383.09949 0,1.59677 -15.00969,0 q 0.2129,3.37097 2.02258,5.14517 1.82742,1.75645 5.0742,1.75645 1.88064,0 3.6371,-0.46129 1.77419,-0.46129 3.5129,-1.38387 l 0,3.08709 q -1.75645,0.74517 -3.60161,1.13549 -1.84516,0.39032 -3.74355,0.39032 -4.75484,0 -7.54033,-2.76774 -2.76774,-2.76775 -2.76774,-7.4871 0,-4.87904 2.62581,-7.73549 2.64355,-2.87419 7.11452,-2.87419 4.00967,0 6.33387,2.59032 2.34194,2.57258 2.34194,7.00807 z m -3.26452,-0.95807 q -0.0355,-2.67903 -1.50807,-4.27581 -1.45484,-1.59677 -3.86774,-1.59677 -2.73226,0 -4.38226,1.54355 -1.63226,1.54355 -1.88065,4.34677 l 11.63872,-0.0177 z" />
        <path
           id="path107"
           style="font-size:36.33549881px;font-family:g_font_1;fill:#000000"
           d="m 709.89537,381.85755 0,11.99355 -3.26451,0 0,-11.8871 q 0,-2.82097 -1.1,-4.22258 -1.1,-1.40161 -3.30001,-1.40161 -2.64354,0 -4.16935,1.68548 -1.52581,1.68549 -1.52581,4.59516 l 0,11.23065 -3.28226,0 0,-19.87097 3.28226,0 0,3.0871 q 1.17097,-1.79194 2.75,-2.67904 1.59678,-0.88709 3.67258,-0.88709 3.4242,0 5.18065,2.12903 1.75645,2.11129 1.75645,6.22742 z" />
        <path
           id="path109"
           style="font-size:22.36709976px;font-family:g_font_1;fill:#000000"
           d="m 117.54055,581.43676 q 1.66006,0 3.09077,0.60068 1.44163,0.60068 2.63206,1.79111 1.19044,1.19044 1.7802,2.62115 0.58976,1.43071 0.58976,3.11261 0,1.66005 -0.58976,3.09076 -0.58976,1.41979 -1.7802,2.61023 -1.19043,1.19043 -2.63206,1.79111 -1.43071,0.60068 -3.09077,0.60068 -1.66006,0 -3.10169,-0.60068 -1.4307,-0.60068 -2.62114,-1.79111 -1.19044,-1.19044 -1.78019,-2.61023 -0.58976,-1.43071 -0.58976,-3.09076 0,-1.6819 0.58976,-3.11261 0.58975,-1.43071 1.78019,-2.62115 1.19044,-1.19043 2.62114,-1.79111 1.44163,-0.60068 3.10169,-0.60068 z m 0,1.12491 q -1.43071,0 -2.66483,0.5133 -1.23412,0.51331 -2.26074,1.53993 -1.02661,1.02661 -1.55084,2.28258 -0.52423,1.24504 -0.52423,2.66483 0,1.40886 0.52423,2.65391 0.52423,1.23412 1.55084,2.26073 1.02662,1.02662 2.26074,1.55085 1.23412,0.5133 2.66483,0.5133 1.44163,0 2.67575,-0.5133 1.24505,-0.52423 2.27166,-1.55085 1.0157,-1.01569 1.51808,-2.24981 0.51331,-1.23413 0.51331,-2.66483 0,-1.45255 -0.51331,-2.68668 -0.51331,-1.24504 -1.51808,-2.26073 -1.02661,-1.02662 -2.27166,-1.53993 -1.23412,-0.5133 -2.67575,-0.5133 z m 3.26551,2.67575 0,1.40886 q -0.72081,-0.3604 -1.43071,-0.53515 -0.70989,-0.17474 -1.4307,-0.17474 -1.6273,0 -2.5447,0.96109 -0.90648,0.95016 -0.90648,2.66483 0,1.7365 0.92832,2.68667 0.93925,0.95016 2.63207,0.95016 0.69897,0 1.36518,-0.16382 0.66621,-0.17474 1.38702,-0.54607 l 0,1.38702 q -0.73173,0.31673 -1.48531,0.46963 -0.74266,0.1529 -1.50716,0.1529 -2.35903,0 -3.73513,-1.33242 -1.36518,-1.33241 -1.36518,-3.60407 0,-2.28258 1.36518,-3.60408 1.3761,-1.32149 3.73513,-1.32149 0.79726,0 1.53992,0.1529 0.74266,0.1529 1.45255,0.44778 z" />
        <path
           id="path111"
           style="font-size:22.36709976px;font-family:g_font_1;fill:#000000"
           d="m 133.27723,595.79845 7.69961,0 0,1.85664 -10.35352,0 0,-1.85664 q 1.25597,-1.29965 3.41841,-3.48394 2.17337,-2.19521 2.73036,-2.82865 1.05938,-1.19044 1.47439,-2.00955 0.42594,-0.83003 0.42594,-1.62729 0,-1.29965 -0.9174,-2.11876 -0.90648,-0.81911 -2.36995,-0.81911 -1.03754,0 -2.19521,0.36041 -1.14675,0.36041 -2.45732,1.09214 l 0,-2.22797 q 1.33241,-0.53515 2.49008,-0.80819 1.15768,-0.27303 2.11876,-0.27303 2.53378,0 4.04093,1.26688 1.50716,1.26689 1.50716,3.38565 0,1.00477 -0.38225,1.91125 -0.37133,0.89556 -1.36518,2.11876 -0.27303,0.31672 -1.73651,1.8348 -1.46347,1.50716 -4.1283,4.2266 z" />
        <path
           id="path113"
           style="font-size:22.36709976px;font-family:g_font_1;fill:#000000"
           d="m 147.81837,582.80194 q -1.70375,0 -2.56654,1.6819 -0.85187,1.67098 -0.85187,5.03478 0,3.35288 0.85187,5.03478 0.86279,1.67098 2.56654,1.67098 1.71466,0 2.56653,-1.67098 0.8628,-1.6819 0.8628,-5.03478 0,-3.3638 -0.8628,-5.03478 -0.85187,-1.6819 -2.56653,-1.6819 z m 0,-1.74743 q 2.74128,0 4.18291,2.17336 1.45255,2.16245 1.45255,6.29075 0,4.11738 -1.45255,6.29075 -1.44163,2.16244 -4.18291,2.16244 -2.74128,0 -4.19384,-2.16244 -1.44162,-2.17337 -1.44162,-6.29075 0,-4.1283 1.44162,-6.29075 1.45256,-2.17336 4.19384,-2.17336 z" />
        <path
           id="path115"
           style="font-size:22.36709976px;font-family:g_font_1;fill:#000000"
           d="m 155.20596,595.79845 3.60407,0 0,-12.43952 -3.92079,0.78634 0,-2.00954 3.89895,-0.78634 2.20613,0 0,14.44906 3.60407,0 0,1.85664 -9.39243,0 0,-1.85664 z" />
        <path
           id="path117"
           style="font-size:22.36709976px;font-family:g_font_1;fill:#000000"
           d="m 162.67856,581.34939 8.6607,0 0,1.85664 -6.64023,0 0,3.99725 q 0.48054,-0.16382 0.96108,-0.24027 0.48055,-0.0874 0.96109,-0.0874 2.73036,0 4.32489,1.49624 1.59453,1.49624 1.59453,4.05185 0,2.63207 -1.63822,4.09554 -1.63821,1.45255 -4.61977,1.45255 -1.02661,0 -2.09691,-0.17474 -1.05938,-0.17474 -2.19521,-0.52423 l 0,-2.21705 q 0.98293,0.53515 2.03139,0.79726 1.04845,0.26212 2.21705,0.26212 1.88941,0 2.99247,-0.99385 1.10307,-0.99385 1.10307,-2.6976 0,-1.70374 -1.10307,-2.69759 -1.10306,-0.99385 -2.99247,-0.99385 -0.88464,0 -1.76927,0.19658 -0.87372,0.19659 -1.79112,0.6116 l 0,-8.19107 z" />
        <path
           id="path119"
           style="font-size:22.36709976px;font-family:g_font_1;fill:#000000"
           d="m 185.59573,583.52275 -2.99247,8.11463 5.99587,0 -3.0034,-8.11463 z m -1.24504,-2.17336 2.50101,0 6.2143,16.3057 -2.29351,0 -1.48531,-4.18291 -7.35013,0 -1.48531,4.18291 -2.32627,0 6.22522,-16.3057 z" />
        <path
           id="path121"
           style="font-size:22.36709976px;font-family:g_font_1;fill:#000000"
           d="m 202.82426,590.2722 0,7.38289 -2.00954,0 0,-7.31736 q 0,-1.73651 -0.67713,-2.5993 -0.67713,-0.8628 -2.03139,-0.8628 -1.62729,0 -2.56654,1.03754 -0.93924,1.03754 -0.93924,2.82865 l 0,6.91327 -2.02046,0 0,-12.23201 2.02046,0 0,1.90033 q 0.72082,-1.10306 1.69282,-1.64913 0.98293,-0.54608 2.26074,-0.54608 2.10784,0 3.18906,1.31058 1.08122,1.29965 1.08122,3.83342 z" />
        <path
           id="path123"
           style="font-size:22.36709976px;font-family:g_font_1;fill:#000000"
           d="m 212.28102,587.27973 0,-6.61839 2.00954,0 0,16.99375 -2.00954,0 0,-1.8348 q -0.63344,1.09214 -1.60545,1.62729 -0.96109,0.52423 -2.31535,0.52423 -2.21705,0 -3.61499,-1.76927 -1.38702,-1.76927 -1.38702,-4.65253 0,-2.88326 1.38702,-4.65253 1.39794,-1.76928 3.61499,-1.76928 1.35426,0 2.31535,0.53515 0.97201,0.52423 1.60545,1.61638 z m -6.84774,4.27028 q 0,2.21705 0.90648,3.48394 0.9174,1.25596 2.51193,1.25596 1.59453,0 2.51193,-1.25596 0.9174,-1.26689 0.9174,-3.48394 0,-2.21705 -0.9174,-3.47302 -0.9174,-1.26689 -2.51193,-1.26689 -1.59453,0 -2.51193,1.26689 -0.90648,1.25597 -0.90648,3.47302 z" />
        <path
           id="path125"
           style="font-size:22.36709976px;font-family:g_font_1;fill:#000000"
           d="m 223.05606,587.30157 q -0.33856,-0.19659 -0.74265,-0.28396 -0.39318,-0.0983 -0.87372,-0.0983 -1.70374,0 -2.62114,1.11399 -0.90648,1.10306 -0.90648,3.17813 l 0,6.44365 -2.02047,0 0,-12.23201 2.02047,0 0,1.90033 q 0.63344,-1.11398 1.64913,-1.64913 1.0157,-0.54608 2.46825,-0.54608 0.20751,0 0.4587,0.0328 0.25119,0.0218 0.55699,0.0765 l 0.0109,2.06415 z" />
        <path
           id="path127"
           style="font-size:22.36709976px;font-family:g_font_1;fill:#000000"
           d="m 233.57724,591.0367 0,0.98293 -9.23953,0 q 0.13105,2.07507 1.24504,3.16722 1.12491,1.08122 3.12353,1.08122 1.15767,0 2.23889,-0.28396 1.09215,-0.28396 2.16245,-0.85187 l 0,1.90033 q -1.08122,0.4587 -2.21705,0.69897 -1.13583,0.24027 -2.30443,0.24027 -2.92694,0 -4.64161,-1.70374 -1.70374,-1.70375 -1.70374,-4.60885 0,-3.00339 1.61637,-4.76174 1.6273,-1.76928 4.3795,-1.76928 2.46824,0 3.89895,1.59453 1.44163,1.58361 1.44163,4.31397 z m -2.00954,-0.58976 q -0.0219,-1.64913 -0.92833,-2.63206 -0.89555,-0.98293 -2.38087,-0.98293 -1.6819,0 -2.69759,0.95016 -1.00478,0.95017 -1.15768,2.67575 l 7.16447,-0.0109 z" />
        <path
           id="path129"
           style="font-size:22.36709976px;font-family:g_font_1;fill:#000000"
           d="m 239.73785,591.50632 q -2.43548,0 -3.37473,0.557 -0.93924,0.55699 -0.93924,1.90033 0,1.0703 0.69897,1.70374 0.70989,0.62252 1.92217,0.62252 1.67098,0 2.67576,-1.17951 1.01569,-1.19044 1.01569,-3.1563 l 0,-0.44778 -1.99862,0 z m 4.00816,-0.83003 0,6.9788 -2.00954,0 0,-1.85664 q -0.68805,1.11398 -1.71467,1.64913 -1.02661,0.52423 -2.51193,0.52423 -1.87848,0 -2.99247,-1.04846 -1.10306,-1.05938 -1.10306,-2.82865 0,-2.06415 1.3761,-3.11261 1.38702,-1.04845 4.1283,-1.04845 l 2.81773,0 0,-0.19659 q 0,-1.38702 -0.9174,-2.1406 -0.90648,-0.7645 -2.55562,-0.7645 -1.04845,0 -2.04231,0.25119 -0.99385,0.25119 -1.91125,0.75358 l 0,-1.85664 q 1.10307,-0.42594 2.1406,-0.63345 1.03754,-0.21843 2.02047,-0.21843 2.65391,0 3.96448,1.3761 1.31057,1.37611 1.31057,4.17199 z" />
        <path
           id="path131"
           style="font-size:22.36709976px;font-family:g_font_1;fill:#000000"
           d="m 252.70344,585.78349 0,1.90033 q -0.85187,-0.43686 -1.76927,-0.65529 -0.9174,-0.21843 -1.90033,-0.21843 -1.49624,0 -2.24982,0.45871 -0.74265,0.4587 -0.74265,1.3761 0,0.69897 0.53515,1.10306 0.53515,0.39317 2.15152,0.75358 l 0.68805,0.1529 q 2.1406,0.4587 3.03616,1.29965 0.90648,0.83003 0.90648,2.32627 0,1.70374 -1.35426,2.69759 -1.34334,0.99385 -3.70237,0.99385 -0.98293,0 -2.05323,-0.19658 -1.05938,-0.18567 -2.23889,-0.56792 l 0,-2.07507 q 1.11398,0.57883 2.19521,0.87371 1.08122,0.28396 2.1406,0.28396 1.41978,0 2.18429,-0.48054 0.7645,-0.49147 0.7645,-1.3761 0,-0.81911 -0.557,-1.25597 -0.54607,-0.43686 -2.41363,-0.84095 l -0.69898,-0.16382 q -1.86756,-0.39317 -2.69759,-1.20136 -0.83003,-0.81911 -0.83003,-2.23889 0,-1.72559 1.2232,-2.66483 1.2232,-0.93925 3.47302,-0.93925 1.11398,0 2.09691,0.16383 0.98293,0.16382 1.81296,0.49146 z" />
        <path
           id="path133"
           style="font-size:22.36709976px;font-family:g_font_1;fill:#000000"
           d="m 260.99709,581.34939 2.20613,0 0,14.44906 7.93988,0 0,1.85664 -10.14601,0 0,-16.3057 z" />
        <path
           id="path135"
           style="font-size:22.36709976px;font-family:g_font_1;fill:#000000"
           d="m 276.84257,591.50632 q -2.43548,0 -3.37473,0.557 -0.93924,0.55699 -0.93924,1.90033 0,1.0703 0.69897,1.70374 0.7099,0.62252 1.92218,0.62252 1.67098,0 2.67575,-1.17951 1.01569,-1.19044 1.01569,-3.1563 l 0,-0.44778 -1.99862,0 z m 4.00816,-0.83003 0,6.9788 -2.00954,0 0,-1.85664 q -0.68805,1.11398 -1.71466,1.64913 -1.02662,0.52423 -2.51193,0.52423 -1.87849,0 -2.99248,-1.04846 -1.10306,-1.05938 -1.10306,-2.82865 0,-2.06415 1.3761,-3.11261 1.38702,-1.04845 4.1283,-1.04845 l 2.81773,0 0,-0.19659 q 0,-1.38702 -0.9174,-2.1406 -0.90648,-0.7645 -2.55562,-0.7645 -1.04845,0 -2.0423,0.25119 -0.99385,0.25119 -1.91126,0.75358 l 0,-1.85664 q 1.10307,-0.42594 2.14061,-0.63345 1.03753,-0.21843 2.02046,-0.21843 2.65391,0 3.96448,1.3761 1.31057,1.37611 1.31057,4.17199 z" />
        <path
           id="path137"
           style="font-size:22.36709976px;font-family:g_font_1;fill:#000000"
           d="m 289.09856,587.30157 q -0.33857,-0.19659 -0.74266,-0.28396 -0.39317,-0.0983 -0.87371,-0.0983 -1.70375,0 -2.62115,1.11399 -0.90648,1.10306 -0.90648,3.17813 l 0,6.44365 -2.02046,0 0,-12.23201 2.02046,0 0,1.90033 q 0.63345,-1.11398 1.64914,-1.64913 1.01569,-0.54608 2.46824,-0.54608 0.20751,0 0.4587,0.0328 0.2512,0.0218 0.557,0.0765 l 0.0109,2.06415 z" />
        <path
           id="path139"
           style="font-size:22.36709976px;font-family:g_font_1;fill:#000000"
           d="m 296.95491,585.78349 0,1.90033 q -0.85188,-0.43686 -1.76928,-0.65529 -0.9174,-0.21843 -1.90033,-0.21843 -1.49623,0 -2.24981,0.45871 -0.74266,0.4587 -0.74266,1.3761 0,0.69897 0.53515,1.10306 0.53515,0.39317 2.15152,0.75358 l 0.68805,0.1529 q 2.14061,0.4587 3.03616,1.29965 0.90648,0.83003 0.90648,2.32627 0,1.70374 -1.35426,2.69759 -1.34333,0.99385 -3.70236,0.99385 -0.98293,0 -2.05323,-0.19658 -1.05938,-0.18567 -2.2389,-0.56792 l 0,-2.07507 q 1.11399,0.57883 2.19521,0.87371 1.08122,0.28396 2.1406,0.28396 1.41979,0 2.18429,-0.48054 0.7645,-0.49147 0.7645,-1.3761 0,-0.81911 -0.55699,-1.25597 -0.54607,-0.43686 -2.41364,-0.84095 l -0.69897,-0.16382 q -1.86757,-0.39317 -2.6976,-1.20136 -0.83003,-0.81911 -0.83003,-2.23889 0,-1.72559 1.22321,-2.66483 1.2232,-0.93925 3.47301,-0.93925 1.11399,0 2.09692,0.16383 0.98293,0.16382 1.81296,0.49146 z" />
        <path
           id="path141"
           style="font-size:22.36709976px;font-family:g_font_1;fill:#000000"
           d="m 309.66093,591.0367 0,0.98293 -9.23953,0 q 0.13106,2.07507 1.24504,3.16722 1.12491,1.08122 3.12353,1.08122 1.15768,0 2.2389,-0.28396 1.09214,-0.28396 2.16244,-0.85187 l 0,1.90033 q -1.08122,0.4587 -2.21705,0.69897 -1.13583,0.24027 -2.30442,0.24027 -2.92695,0 -4.64161,-1.70374 -1.70375,-1.70375 -1.70375,-4.60885 0,-3.00339 1.61638,-4.76174 1.62729,-1.76928 4.37949,-1.76928 2.46825,0 3.89896,1.59453 1.44162,1.58361 1.44162,4.31397 z m -2.00954,-0.58976 q -0.0218,-1.64913 -0.92832,-2.63206 -0.89556,-0.98293 -2.38087,-0.98293 -1.68191,0 -2.6976,0.95016 -1.00477,0.95017 -1.15767,2.67575 l 7.16446,-0.0109 z" />
        <path
           id="path143"
           style="font-size:22.36709976px;font-family:g_font_1;fill:#000000"
           d="m 320.43039,590.2722 0,7.38289 -2.00955,0 0,-7.31736 q 0,-1.73651 -0.67713,-2.5993 -0.67713,-0.8628 -2.03138,-0.8628 -1.6273,0 -2.56654,1.03754 -0.93924,1.03754 -0.93924,2.82865 l 0,6.91327 -2.02047,0 0,-12.23201 2.02047,0 0,1.90033 q 0.72081,-1.10306 1.69282,-1.64913 0.98293,-0.54608 2.26074,-0.54608 2.10783,0 3.18905,1.31058 1.08123,1.29965 1.08123,3.83342 z" />
        <path
           id="path145"
           style="font-size:22.36709976px;font-family:g_font_1;fill:#000000"
           d="m 331.13147,588.88518 q -0.99385,0.88463 -1.46347,1.76927 -0.4587,0.87372 -0.4587,1.8348 0,1.59453 1.15767,2.65391 1.15767,1.05938 2.9051,1.05938 1.03754,0 1.94402,-0.33857 0.90648,-0.34948 1.70374,-1.04845 l -5.78836,-5.93034 z m 1.53992,-1.2232 5.54809,5.67914 q 0.64437,-0.972 1.00477,-2.07507 0.36041,-1.11399 0.42594,-2.35903 l 2.03139,0 q -0.13106,1.44163 -0.69897,2.8505 -0.56792,1.40886 -1.58361,2.78496 l 3.04708,3.11261 -2.7522,0 -1.56177,-1.60545 q -1.13583,0.97201 -2.38087,1.45255 -1.24505,0.46962 -2.67575,0.46962 -2.63207,0 -4.30305,-1.49623 -1.67098,-1.50716 -1.67098,-3.85527 0,-1.39795 0.73174,-2.62115 0.73173,-1.23412 2.19521,-2.31534 -0.52423,-0.68805 -0.79727,-1.36518 -0.27303,-0.68805 -0.27303,-1.34334 0,-1.76927 1.21227,-2.83957 1.21228,-1.08122 3.22183,-1.08122 0.90648,0 1.80204,0.19658 0.90647,0.19659 1.8348,0.58976 l 0,1.9877 q -0.95017,-0.5133 -1.81296,-0.77542 -0.8628,-0.27303 -1.60545,-0.27303 -1.14675,0 -1.86757,0.6116 -0.70989,0.60067 -0.70989,1.56176 0,0.55699 0.31672,1.12491 0.32764,0.55699 1.32149,1.58361 z" />
        <path
           id="path147"
           style="font-size:22.36709976px;font-family:g_font_1;fill:#000000"
           d="m 357.37182,585.8927 0,1.87849 q -0.85187,-0.46962 -1.71467,-0.69897 -0.85187,-0.24027 -1.72558,-0.24027 -1.95494,0 -3.03616,1.24504 -1.08123,1.23412 -1.08123,3.47302 0,2.23889 1.08123,3.48394 1.08122,1.23412 3.03616,1.23412 0.87371,0 1.72558,-0.22935 0.8628,-0.24027 1.71467,-0.7099 l 0,1.85665 q -0.84095,0.39317 -1.74743,0.58976 -0.89556,0.19658 -1.91125,0.19658 -2.76313,0 -4.39042,-1.73651 -1.62729,-1.7365 -1.62729,-4.68529 0,-2.99248 1.63821,-4.70714 1.64914,-1.71467 4.51055,-1.71467 0.92833,0 1.81296,0.19659 0.88464,0.18566 1.71467,0.56791 z" />
        <path
           id="path149"
           style="font-size:22.36709976px;font-family:g_font_1;fill:#000000"
           d="m 363.5108,586.83195 q -1.61638,0 -2.55562,1.26688 -0.93924,1.25597 -0.93924,3.45118 0,2.19521 0.92832,3.46209 0.93924,1.25597 2.56654,1.25597 1.60545,0 2.54469,-1.26689 0.93924,-1.26688 0.93924,-3.45117 0,-2.17337 -0.93924,-3.44025 -0.93924,-1.27781 -2.54469,-1.27781 z m 0,-1.70375 q 2.62114,0 4.11738,1.70375 1.49623,1.70374 1.49623,4.71806 0,3.00339 -1.49623,4.71806 -1.49624,1.70374 -4.11738,1.70374 -2.63207,0 -4.12831,-1.70374 -1.48531,-1.71467 -1.48531,-4.71806 0,-3.01432 1.48531,-4.71806 1.49624,-1.70375 4.12831,-1.70375 z" />
        <path
           id="path151"
           style="font-size:22.36709976px;font-family:g_font_1;fill:#000000"
           d="m 380.51397,590.2722 0,7.38289 -2.00954,0 0,-7.31736 q 0,-1.73651 -0.67713,-2.5993 -0.67713,-0.8628 -2.03139,-0.8628 -1.62729,0 -2.56653,1.03754 -0.93925,1.03754 -0.93925,2.82865 l 0,6.91327 -2.02046,0 0,-12.23201 2.02046,0 0,1.90033 q 0.72082,-1.10306 1.69283,-1.64913 0.98293,-0.54608 2.26073,-0.54608 2.10784,0 3.18906,1.31058 1.08122,1.29965 1.08122,3.83342 z" />
        <path
           id="path153"
           style="font-size:22.36709976px;font-family:g_font_1;fill:#000000"
           d="m 383.90932,581.95007 0,3.47301 4.13922,0 0,1.56177 -4.13922,0 0,6.64023 q 0,1.49624 0.40409,1.92217 0.41502,0.42594 1.67098,0.42594 l 2.06415,0 0,1.6819 -2.06415,0 q -2.32626,0 -3.2109,-0.86279 -0.88464,-0.87372 -0.88464,-3.16722 l 0,-6.64023 -1.47439,0 0,-1.56177 1.47439,0 0,-3.47301 2.02047,0 z" />
        <path
           id="path155"
           style="font-size:22.36709976px;font-family:g_font_1;fill:#000000"
           d="m 395.64797,587.30157 q -0.33857,-0.19659 -0.74266,-0.28396 -0.39317,-0.0983 -0.87372,-0.0983 -1.70374,0 -2.62114,1.11399 -0.90648,1.10306 -0.90648,3.17813 l 0,6.44365 -2.02047,0 0,-12.23201 2.02047,0 0,1.90033 q 0.63344,-1.11398 1.64914,-1.64913 1.01569,-0.54608 2.46824,-0.54608 0.20751,0 0.4587,0.0328 0.25119,0.0218 0.557,0.0765 l 0.0109,2.06415 z" />
        <path
           id="path157"
           style="font-size:22.36709976px;font-family:g_font_1;fill:#000000"
           d="m 395.70638,585.42308 2.00954,0 0,12.23201 -2.00954,0 0,-12.23201 z m 0,-4.76174 2.00954,0 0,2.54469 -2.00954,0 0,-2.54469 z" />
        <path
           id="path159"
           style="font-size:22.36709976px;font-family:g_font_1;fill:#000000"
           d="m 409.25415,591.55001 q 0,-2.21705 -0.9174,-3.47302 -0.90648,-1.26689 -2.50101,-1.26689 -1.59453,0 -2.51193,1.26689 -0.90648,1.25597 -0.90648,3.47302 0,2.21705 0.90648,3.48394 0.9174,1.25596 2.51193,1.25596 1.59453,0 2.50101,-1.25596 0.9174,-1.26689 0.9174,-3.48394 z m -6.83682,-4.27028 q 0.63344,-1.09215 1.59453,-1.61638 0.97201,-0.53515 2.31534,-0.53515 2.22798,0 3.615,1.76928 1.39794,1.76927 1.39794,4.65253 0,2.88326 -1.39794,4.65253 -1.38702,1.76927 -3.615,1.76927 -1.34333,0 -2.31534,-0.52423 -0.96109,-0.53515 -1.59453,-1.62729 l 0,1.8348 -2.02046,0 0,-16.99375 2.02046,0 0,6.61839 z" />
        <path
           id="path161"
           style="font-size:22.36709976px;font-family:g_font_1;fill:#000000"
           d="m 412.00192,592.82782 0,-7.40474 2.00955,0 0,7.32829 q 0,1.7365 0.67713,2.61022 0.67712,0.86279 2.03138,0.86279 1.6273,0 2.56654,-1.03753 0.95017,-1.03754 0.95017,-2.82866 l 0,-6.93511 2.00954,0 0,12.23201 -2.00954,0 0,-1.87849 q -0.73174,1.11399 -1.70375,1.66006 -0.96109,0.53515 -2.23889,0.53515 -2.10784,0 -3.19998,-1.31057 -1.09215,-1.31057 -1.09215,-3.83342 z" />
        <path
           id="path163"
           style="font-size:22.36709976px;font-family:g_font_1;fill:#000000"
           d="m 425.77004,581.95007 0,3.47301 4.13922,0 0,1.56177 -4.13922,0 0,6.64023 q 0,1.49624 0.40409,1.92217 0.41502,0.42594 1.67098,0.42594 l 2.06415,0 0,1.6819 -2.06415,0 q -2.32627,0 -3.2109,-0.86279 -0.88464,-0.87372 -0.88464,-3.16722 l 0,-6.64023 -1.47439,0 0,-1.56177 1.47439,0 0,-3.47301 2.02047,0 z" />
        <path
           id="path165"
           style="font-size:22.36709976px;font-family:g_font_1;fill:#000000"
           d="m 435.16055,586.83195 q -1.61638,0 -2.55562,1.26688 -0.93924,1.25597 -0.93924,3.45118 0,2.19521 0.92832,3.46209 0.93924,1.25597 2.56654,1.25597 1.60545,0 2.54469,-1.26689 0.93924,-1.26688 0.93924,-3.45117 0,-2.17337 -0.93924,-3.44025 -0.93924,-1.27781 -2.54469,-1.27781 z m 0,-1.70375 q 2.62114,0 4.11738,1.70375 1.49623,1.70374 1.49623,4.71806 0,3.00339 -1.49623,4.71806 -1.49624,1.70374 -4.11738,1.70374 -2.63207,0 -4.12831,-1.70374 -1.48531,-1.71467 -1.48531,-4.71806 0,-3.01432 1.48531,-4.71806 1.49624,-1.70375 4.12831,-1.70375 z" />
        <path
           id="path167"
           style="font-size:22.36709976px;font-family:g_font_1;fill:#000000"
           d="m 449.08418,587.30157 q -0.33856,-0.19659 -0.74265,-0.28396 -0.39317,-0.0983 -0.87372,-0.0983 -1.70374,0 -2.62114,1.11399 -0.90648,1.10306 -0.90648,3.17813 l 0,6.44365 -2.02047,0 0,-12.23201 2.02047,0 0,1.90033 q 0.63344,-1.11398 1.64914,-1.64913 1.01569,-0.54608 2.46824,-0.54608 0.20751,0 0.4587,0.0328 0.25119,0.0218 0.55699,0.0765 l 0.0109,2.06415 z" />
        <path
           id="path169"
           style="font-size:22.36709976px;font-family:g_font_1;fill:#000000"
           d="m 456.9405,585.78349 0,1.90033 q -0.85187,-0.43686 -1.76927,-0.65529 -0.9174,-0.21843 -1.90033,-0.21843 -1.49624,0 -2.24982,0.45871 -0.74265,0.4587 -0.74265,1.3761 0,0.69897 0.53515,1.10306 0.53515,0.39317 2.15152,0.75358 l 0.68805,0.1529 q 2.1406,0.4587 3.03616,1.29965 0.90648,0.83003 0.90648,2.32627 0,1.70374 -1.35426,2.69759 -1.34334,0.99385 -3.70237,0.99385 -0.98293,0 -2.05323,-0.19658 -1.05938,-0.18567 -2.23889,-0.56792 l 0,-2.07507 q 1.11399,0.57883 2.19521,0.87371 1.08122,0.28396 2.1406,0.28396 1.41979,0 2.18429,-0.48054 0.7645,-0.49147 0.7645,-1.3761 0,-0.81911 -0.557,-1.25597 -0.54607,-0.43686 -2.41363,-0.84095 l -0.69898,-0.16382 q -1.86756,-0.39317 -2.69759,-1.20136 -0.83003,-0.81911 -0.83003,-2.23889 0,-1.72559 1.2232,-2.66483 1.2232,-0.93925 3.47302,-0.93925 1.11398,0 2.09691,0.16383 0.98293,0.16382 1.81296,0.49146 z" />
        <path
           id="path171"
           style="font-size:22.36709976px;font-family:g_font_1;fill:#000000"
           d="m 459.6971,594.88105 2.30443,0 0,1.87848 -1.79112,3.49486 -1.40886,0 0.89555,-3.49486 0,-1.87848 z" />
        <path
           id="path173"
           style="font-size:22.36709976px;font-family:g_font_1;fill:#000000"
           d="m 476.45047,580.66134 0,1.67098 -1.92217,0 q -1.08123,0 -1.50716,0.43685 -0.41502,0.43686 -0.41502,1.57269 l 0,1.08122 3.3092,0 0,1.56177 -3.3092,0 0,10.67024 -2.02046,0 0,-10.67024 -1.92218,0 0,-1.56177 1.92218,0 0,-0.85187 q 0,-2.04231 0.95016,-2.97063 0.95017,-0.93924 3.01432,-0.93924 l 1.90033,0 z" />
        <path
           id="path175"
           style="font-size:22.36709976px;font-family:g_font_1;fill:#000000"
           d="m 483.64345,587.30157 q -0.33856,-0.19659 -0.74266,-0.28396 -0.39317,-0.0983 -0.87371,-0.0983 -1.70375,0 -2.62115,1.11399 -0.90648,1.10306 -0.90648,3.17813 l 0,6.44365 -2.02046,0 0,-12.23201 2.02046,0 0,1.90033 q 0.63345,-1.11398 1.64914,-1.64913 1.01569,-0.54608 2.46825,-0.54608 0.2075,0 0.4587,0.0328 0.25119,0.0218 0.55699,0.0765 l 0.0109,2.06415 z" />
        <path
           id="path177"
           style="font-size:22.36709976px;font-family:g_font_1;fill:#000000"
           d="m 494.1646,591.0367 0,0.98293 -9.23954,0 q 0.13106,2.07507 1.24505,3.16722 1.1249,1.08122 3.12353,1.08122 1.15767,0 2.23889,-0.28396 1.09214,-0.28396 2.16245,-0.85187 l 0,1.90033 q -1.08123,0.4587 -2.21706,0.69897 -1.13583,0.24027 -2.30442,0.24027 -2.92694,0 -4.64161,-1.70374 -1.70374,-1.70375 -1.70374,-4.60885 0,-3.00339 1.61637,-4.76174 1.62729,-1.76928 4.37949,-1.76928 2.46825,0 3.89896,1.59453 1.44163,1.58361 1.44163,4.31397 z m -2.00955,-0.58976 q -0.0218,-1.64913 -0.92832,-2.63206 -0.89556,-0.98293 -2.38087,-0.98293 -1.6819,0 -2.6976,0.95016 -1.00477,0.95017 -1.15767,2.67575 l 7.16446,-0.0109 z" />
        <path
           id="path179"
           style="font-size:22.36709976px;font-family:g_font_1;fill:#000000"
           d="m 505.22865,591.0367 0,0.98293 -9.23953,0 q 0.13106,2.07507 1.24504,3.16722 1.12491,1.08122 3.12353,1.08122 1.15768,0 2.2389,-0.28396 1.09214,-0.28396 2.16244,-0.85187 l 0,1.90033 q -1.08122,0.4587 -2.21705,0.69897 -1.13583,0.24027 -2.30442,0.24027 -2.92695,0 -4.64161,-1.70374 -1.70375,-1.70375 -1.70375,-4.60885 0,-3.00339 1.61638,-4.76174 1.62729,-1.76928 4.37949,-1.76928 2.46825,0 3.89895,1.59453 1.44163,1.58361 1.44163,4.31397 z m -2.00954,-0.58976 q -0.0218,-1.64913 -0.92832,-2.63206 -0.89556,-0.98293 -2.38088,-0.98293 -1.6819,0 -2.69759,0.95016 -1.00477,0.95017 -1.15767,2.67575 l 7.16446,-0.0109 z" />
        <path
           id="path181"
           style="font-size:22.36709976px;font-family:g_font_1;fill:#000000"
           d="m 517.98538,580.66134 0,1.67098 -1.92217,0 q -1.08122,0 -1.50716,0.43685 -0.41502,0.43686 -0.41502,1.57269 l 0,1.08122 3.3092,0 0,1.56177 -3.3092,0 0,10.67024 -2.02046,0 0,-10.67024 -1.92217,0 0,-1.56177 1.92217,0 0,-0.85187 q 0,-2.04231 0.95016,-2.97063 0.95017,-0.93924 3.01432,-0.93924 l 1.90033,0 z" />
        <path
           id="path183"
           style="font-size:22.36709976px;font-family:g_font_1;fill:#000000"
           d="m 522.82992,586.83195 q -1.61637,0 -2.55562,1.26688 -0.93924,1.25597 -0.93924,3.45118 0,2.19521 0.92832,3.46209 0.93924,1.25597 2.56654,1.25597 1.60545,0 2.54469,-1.26689 0.93925,-1.26688 0.93925,-3.45117 0,-2.17337 -0.93925,-3.44025 -0.93924,-1.27781 -2.54469,-1.27781 z m 0,-1.70375 q 2.62114,0 4.11738,1.70375 1.49624,1.70374 1.49624,4.71806 0,3.00339 -1.49624,4.71806 -1.49624,1.70374 -4.11738,1.70374 -2.63207,0 -4.1283,-1.70374 -1.48532,-1.71467 -1.48532,-4.71806 0,-3.01432 1.48532,-4.71806 1.49623,-1.70375 4.1283,-1.70375 z" />
        <path
           id="path185"
           style="font-size:22.36709976px;font-family:g_font_1;fill:#000000"
           d="m 536.75359,587.30157 q -0.33857,-0.19659 -0.74266,-0.28396 -0.39317,-0.0983 -0.87371,-0.0983 -1.70375,0 -2.62115,1.11399 -0.90648,1.10306 -0.90648,3.17813 l 0,6.44365 -2.02046,0 0,-12.23201 2.02046,0 0,1.90033 q 0.63345,-1.11398 1.64914,-1.64913 1.01569,-0.54608 2.46824,-0.54608 0.20751,0 0.4587,0.0328 0.2512,0.0218 0.557,0.0765 l 0.0109,2.06415 z" />
        <path
           id="path187"
           style="font-size:22.36709976px;font-family:g_font_1;fill:#000000"
           d="m 544.71866,595.82029 0,6.48733 -2.02046,0 0,-16.88454 2.02046,0 0,1.85665 q 0.63344,-1.09215 1.59453,-1.61638 0.97201,-0.53515 2.31535,-0.53515 2.22797,0 3.61499,1.76928 1.39794,1.76927 1.39794,4.65253 0,2.88326 -1.39794,4.65253 -1.38702,1.76927 -3.61499,1.76927 -1.34334,0 -2.31535,-0.52423 -0.96109,-0.53515 -1.59453,-1.62729 z m 6.83682,-4.27028 q 0,-2.21705 -0.9174,-3.47302 -0.90648,-1.26689 -2.50101,-1.26689 -1.59453,0 -2.51193,1.26689 -0.90648,1.25597 -0.90648,3.47302 0,2.21705 0.90648,3.48394 0.9174,1.25596 2.51193,1.25596 1.59453,0 2.50101,-1.25596 0.9174,-1.26689 0.9174,-3.48394 z" />
        <path
           id="path189"
           style="font-size:22.36709976px;font-family:g_font_1;fill:#000000"
           d="m 561.5988,587.30157 q -0.33856,-0.19659 -0.74265,-0.28396 -0.39318,-0.0983 -0.87372,-0.0983 -1.70374,0 -2.62114,1.11399 -0.90648,1.10306 -0.90648,3.17813 l 0,6.44365 -2.02047,0 0,-12.23201 2.02047,0 0,1.90033 q 0.63344,-1.11398 1.64913,-1.64913 1.0157,-0.54608 2.46825,-0.54608 0.20751,0 0.4587,0.0328 0.25119,0.0218 0.55699,0.0765 l 0.0109,2.06415 z" />
        <path
           id="path191"
           style="font-size:22.36709976px;font-family:g_font_1;fill:#000000"
           d="m 561.65721,585.42308 2.00955,0 0,12.23201 -2.00955,0 0,-12.23201 z m 0,-4.76174 2.00955,0 0,2.54469 -2.00955,0 0,-2.54469 z" />
        <path
           id="path193"
           style="font-size:22.36709976px;font-family:g_font_1;fill:#000000"
           d="m 564.98249,585.42308 2.12968,0 3.8225,10.26615 3.82251,-10.26615 2.12968,0 -4.58701,12.23201 -2.73036,0 -4.587,-12.23201 z" />
        <path
           id="path195"
           style="font-size:22.36709976px;font-family:g_font_1;fill:#000000"
           d="m 582.07487,591.50632 q -2.43548,0 -3.37473,0.557 -0.93924,0.55699 -0.93924,1.90033 0,1.0703 0.69897,1.70374 0.7099,0.62252 1.92218,0.62252 1.67097,0 2.67575,-1.17951 1.01569,-1.19044 1.01569,-3.1563 l 0,-0.44778 -1.99862,0 z m 4.00816,-0.83003 0,6.9788 -2.00954,0 0,-1.85664 q -0.68805,1.11398 -1.71466,1.64913 -1.02662,0.52423 -2.51194,0.52423 -1.87848,0 -2.99247,-1.04846 -1.10306,-1.05938 -1.10306,-2.82865 0,-2.06415 1.3761,-3.11261 1.38702,-1.04845 4.1283,-1.04845 l 2.81773,0 0,-0.19659 q 0,-1.38702 -0.9174,-2.1406 -0.90648,-0.7645 -2.55562,-0.7645 -1.04845,0 -2.0423,0.25119 -0.99386,0.25119 -1.91126,0.75358 l 0,-1.85664 q 1.10307,-0.42594 2.14061,-0.63345 1.03753,-0.21843 2.02046,-0.21843 2.65391,0 3.96448,1.3761 1.31057,1.37611 1.31057,4.17199 z" />
        <path
           id="path197"
           style="font-size:22.36709976px;font-family:g_font_1;fill:#000000"
           d="m 589.23055,581.95007 0,3.47301 4.13922,0 0,1.56177 -4.13922,0 0,6.64023 q 0,1.49624 0.40409,1.92217 0.41502,0.42594 1.67098,0.42594 l 2.06415,0 0,1.6819 -2.06415,0 q -2.32626,0 -3.2109,-0.86279 -0.88464,-0.87372 -0.88464,-3.16722 l 0,-6.64023 -1.47439,0 0,-1.56177 1.47439,0 0,-3.47301 2.02047,0 z" />
        <path
           id="path199"
           style="font-size:22.36709976px;font-family:g_font_1;fill:#000000"
           d="m 604.34389,591.0367 0,0.98293 -9.23954,0 q 0.13106,2.07507 1.24505,3.16722 1.1249,1.08122 3.12353,1.08122 1.15767,0 2.23889,-0.28396 1.09215,-0.28396 2.16245,-0.85187 l 0,1.90033 q -1.08123,0.4587 -2.21706,0.69897 -1.13582,0.24027 -2.30442,0.24027 -2.92694,0 -4.64161,-1.70374 -1.70374,-1.70375 -1.70374,-4.60885 0,-3.00339 1.61637,-4.76174 1.62729,-1.76928 4.3795,-1.76928 2.46824,0 3.89895,1.59453 1.44163,1.58361 1.44163,4.31397 z m -2.00955,-0.58976 q -0.0218,-1.64913 -0.92832,-2.63206 -0.89556,-0.98293 -2.38087,-0.98293 -1.6819,0 -2.6976,0.95016 -1.00477,0.95017 -1.15767,2.67575 l 7.16446,-0.0109 z" />
        <path
           id="path201"
           style="font-size:22.36709976px;font-family:g_font_1;fill:#000000"
           d="m 616.4672,591.50632 q -2.43548,0 -3.37472,0.557 -0.93925,0.55699 -0.93925,1.90033 0,1.0703 0.69898,1.70374 0.70989,0.62252 1.92217,0.62252 1.67098,0 2.67575,-1.17951 1.01569,-1.19044 1.01569,-3.1563 l 0,-0.44778 -1.99862,0 z m 4.00817,-0.83003 0,6.9788 -2.00955,0 0,-1.85664 q -0.68805,1.11398 -1.71466,1.64913 -1.02662,0.52423 -2.51193,0.52423 -1.87849,0 -2.99247,-1.04846 -1.10307,-1.05938 -1.10307,-2.82865 0,-2.06415 1.3761,-3.11261 1.38702,-1.04845 4.1283,-1.04845 l 2.81773,0 0,-0.19659 q 0,-1.38702 -0.9174,-2.1406 -0.90648,-0.7645 -2.55561,-0.7645 -1.04846,0 -2.04231,0.25119 -0.99385,0.25119 -1.91125,0.75358 l 0,-1.85664 q 1.10306,-0.42594 2.1406,-0.63345 1.03754,-0.21843 2.02047,-0.21843 2.6539,0 3.96448,1.3761 1.31057,1.37611 1.31057,4.17199 z" />
        <path
           id="path203"
           style="font-size:22.36709976px;font-family:g_font_1;fill:#000000"
           d="m 631.80304,590.2722 0,7.38289 -2.00955,0 0,-7.31736 q 0,-1.73651 -0.67713,-2.5993 -0.67712,-0.8628 -2.03138,-0.8628 -1.6273,0 -2.56654,1.03754 -0.93924,1.03754 -0.93924,2.82865 l 0,6.91327 -2.02047,0 0,-12.23201 2.02047,0 0,1.90033 q 0.72081,-1.10306 1.69282,-1.64913 0.98293,-0.54608 2.26074,-0.54608 2.10783,0 3.18906,1.31058 1.08122,1.29965 1.08122,3.83342 z" />
        <path
           id="path205"
           style="font-size:22.36709976px;font-family:g_font_1;fill:#000000"
           d="m 641.25954,587.27973 0,-6.61839 2.00954,0 0,16.99375 -2.00954,0 0,-1.8348 q -0.63345,1.09214 -1.60546,1.62729 -0.96108,0.52423 -2.31534,0.52423 -2.21705,0 -3.615,-1.76927 -1.38702,-1.76927 -1.38702,-4.65253 0,-2.88326 1.38702,-4.65253 1.39795,-1.76928 3.615,-1.76928 1.35426,0 2.31534,0.53515 0.97201,0.52423 1.60546,1.61638 z m -6.84774,4.27028 q 0,2.21705 0.90647,3.48394 0.9174,1.25596 2.51193,1.25596 1.59453,0 2.51193,-1.25596 0.91741,-1.26689 0.91741,-3.48394 0,-2.21705 -0.91741,-3.47302 -0.9174,-1.26689 -2.51193,-1.26689 -1.59453,0 -2.51193,1.26689 -0.90647,1.25597 -0.90647,3.47302 z" />
        <path
           id="path207"
           style="font-size:22.36709976px;font-family:g_font_1;fill:#000000"
           d="m 661.37233,591.0367 0,0.98293 -9.23953,0 q 0.13105,2.07507 1.24504,3.16722 1.12491,1.08122 3.12353,1.08122 1.15767,0 2.23889,-0.28396 1.09215,-0.28396 2.16245,-0.85187 l 0,1.90033 q -1.08122,0.4587 -2.21705,0.69897 -1.13583,0.24027 -2.30443,0.24027 -2.92694,0 -4.64161,-1.70374 -1.70374,-1.70375 -1.70374,-4.60885 0,-3.00339 1.61637,-4.76174 1.6273,-1.76928 4.3795,-1.76928 2.46824,0 3.89895,1.59453 1.44163,1.58361 1.44163,4.31397 z m -2.00954,-0.58976 q -0.0218,-1.64913 -0.92833,-2.63206 -0.89555,-0.98293 -2.38087,-0.98293 -1.6819,0 -2.69759,0.95016 -1.00478,0.95017 -1.15768,2.67575 l 7.16447,-0.0109 z" />
        <path
           id="path209"
           style="font-size:22.36709976px;font-family:g_font_1;fill:#000000"
           d="m 670.02272,587.27973 0,-6.61839 2.00954,0 0,16.99375 -2.00954,0 0,-1.8348 q -0.63344,1.09214 -1.60545,1.62729 -0.96109,0.52423 -2.31535,0.52423 -2.21705,0 -3.61499,-1.76927 -1.38702,-1.76927 -1.38702,-4.65253 0,-2.88326 1.38702,-4.65253 1.39794,-1.76928 3.61499,-1.76928 1.35426,0 2.31535,0.53515 0.97201,0.52423 1.60545,1.61638 z m -6.84774,4.27028 q 0,2.21705 0.90648,3.48394 0.9174,1.25596 2.51193,1.25596 1.59453,0 2.51193,-1.25596 0.9174,-1.26689 0.9174,-3.48394 0,-2.21705 -0.9174,-3.47302 -0.9174,-1.26689 -2.51193,-1.26689 -1.59453,0 -2.51193,1.26689 -0.90648,1.25597 -0.90648,3.47302 z" />
        <path
           id="path211"
           style="font-size:22.36709976px;font-family:g_font_1;fill:#000000"
           d="m 673.50256,592.82782 0,-7.40474 2.00955,0 0,7.32829 q 0,1.7365 0.67713,2.61022 0.67713,0.86279 2.03138,0.86279 1.6273,0 2.56654,-1.03753 0.95017,-1.03754 0.95017,-2.82866 l 0,-6.93511 2.00954,0 0,12.23201 -2.00954,0 0,-1.87849 q -0.73174,1.11399 -1.70375,1.66006 -0.96108,0.53515 -2.23889,0.53515 -2.10784,0 -3.19998,-1.31057 -1.09215,-1.31057 -1.09215,-3.83342 z" />
        <path
           id="path213"
           style="font-size:22.36709976px;font-family:g_font_1;fill:#000000"
           d="m 694.08538,585.8927 0,1.87849 q -0.85187,-0.46962 -1.71467,-0.69897 -0.85187,-0.24027 -1.72558,-0.24027 -1.95494,0 -3.03616,1.24504 -1.08122,1.23412 -1.08122,3.47302 0,2.23889 1.08122,3.48394 1.08122,1.23412 3.03616,1.23412 0.87371,0 1.72558,-0.22935 0.8628,-0.24027 1.71467,-0.7099 l 0,1.85665 q -0.84095,0.39317 -1.74743,0.58976 -0.89556,0.19658 -1.91125,0.19658 -2.76312,0 -4.39042,-1.73651 -1.62729,-1.7365 -1.62729,-4.68529 0,-2.99248 1.63821,-4.70714 1.64914,-1.71467 4.51056,-1.71467 0.92832,0 1.81295,0.19659 0.88464,0.18566 1.71467,0.56791 z" />
        <path
           id="path215"
           style="font-size:22.36709976px;font-family:g_font_1;fill:#000000"
           d="m 701.04343,591.50632 q -2.43548,0 -3.37472,0.557 -0.93924,0.55699 -0.93924,1.90033 0,1.0703 0.69897,1.70374 0.70989,0.62252 1.92217,0.62252 1.67098,0 2.67575,-1.17951 1.0157,-1.19044 1.0157,-3.1563 l 0,-0.44778 -1.99863,0 z m 4.00817,-0.83003 0,6.9788 -2.00954,0 0,-1.85664 q -0.68805,1.11398 -1.71467,1.64913 -1.02661,0.52423 -2.51193,0.52423 -1.87849,0 -2.99247,-1.04846 -1.10307,-1.05938 -1.10307,-2.82865 0,-2.06415 1.3761,-3.11261 1.38703,-1.04845 4.12831,-1.04845 l 2.81773,0 0,-0.19659 q 0,-1.38702 -0.9174,-2.1406 -0.90648,-0.7645 -2.55562,-0.7645 -1.04846,0 -2.04231,0.25119 -0.99385,0.25119 -1.91125,0.75358 l 0,-1.85664 q 1.10307,-0.42594 2.1406,-0.63345 1.03754,-0.21843 2.02047,-0.21843 2.65391,0 3.96448,1.3761 1.31057,1.37611 1.31057,4.17199 z" />
        <path
           id="path217"
           style="font-size:22.36709976px;font-family:g_font_1;fill:#000000"
           d="m 708.19881,581.95007 0,3.47301 4.13922,0 0,1.56177 -4.13922,0 0,6.64023 q 0,1.49624 0.40409,1.92217 0.41502,0.42594 1.67098,0.42594 l 2.06415,0 0,1.6819 -2.06415,0 q -2.32626,0 -3.2109,-0.86279 -0.88464,-0.87372 -0.88464,-3.16722 l 0,-6.64023 -1.47439,0 0,-1.56177 1.47439,0 0,-3.47301 2.02047,0 z" />
        <path
           id="path219"
           style="font-size:22.36709976px;font-family:g_font_1;fill:#000000"
           d="m 712.84941,585.42308 2.00955,0 0,12.23201 -2.00955,0 0,-12.23201 z m 0,-4.76174 2.00955,0 0,2.54469 -2.00955,0 0,-2.54469 z" />
        <path
           id="path221"
           style="font-size:22.36709976px;font-family:g_font_1;fill:#000000"
           d="m 722.35628,586.83195 q -1.61637,0 -2.55561,1.26688 -0.93924,1.25597 -0.93924,3.45118 0,2.19521 0.92832,3.46209 0.93924,1.25597 2.56653,1.25597 1.60546,0 2.5447,-1.26689 0.93924,-1.26688 0.93924,-3.45117 0,-2.17337 -0.93924,-3.44025 -0.93924,-1.27781 -2.5447,-1.27781 z m 0,-1.70375 q 2.62115,0 4.11739,1.70375 1.49623,1.70374 1.49623,4.71806 0,3.00339 -1.49623,4.71806 -1.49624,1.70374 -4.11739,1.70374 -2.63206,0 -4.1283,-1.70374 -1.48531,-1.71467 -1.48531,-4.71806 0,-3.01432 1.48531,-4.71806 1.49624,-1.70375 4.1283,-1.70375 z" />
        <path
           id="path223"
           style="font-size:22.36709976px;font-family:g_font_1;fill:#000000"
           d="m 739.35974,590.2722 0,7.38289 -2.00955,0 0,-7.31736 q 0,-1.73651 -0.67712,-2.5993 -0.67713,-0.8628 -2.03139,-0.8628 -1.6273,0 -2.56654,1.03754 -0.93924,1.03754 -0.93924,2.82865 l 0,6.91327 -2.02047,0 0,-12.23201 2.02047,0 0,1.90033 q 0.72081,-1.10306 1.69282,-1.64913 0.98293,-0.54608 2.26074,-0.54608 2.10783,0 3.18906,1.31058 1.08122,1.29965 1.08122,3.83342 z" />
        <path
           id="path225"
           style="font-size:22.36709976px;font-family:g_font_1;fill:#000000"
           d="m 746.32615,591.50632 q -2.43548,0 -3.37472,0.557 -0.93925,0.55699 -0.93925,1.90033 0,1.0703 0.69897,1.70374 0.7099,0.62252 1.92218,0.62252 1.67098,0 2.67575,-1.17951 1.01569,-1.19044 1.01569,-3.1563 l 0,-0.44778 -1.99862,0 z m 4.00817,-0.83003 0,6.9788 -2.00955,0 0,-1.85664 q -0.68805,1.11398 -1.71466,1.64913 -1.02662,0.52423 -2.51193,0.52423 -1.87849,0 -2.99248,-1.04846 -1.10306,-1.05938 -1.10306,-2.82865 0,-2.06415 1.3761,-3.11261 1.38702,-1.04845 4.1283,-1.04845 l 2.81773,0 0,-0.19659 q 0,-1.38702 -0.9174,-2.1406 -0.90648,-0.7645 -2.55561,-0.7645 -1.04846,0 -2.04231,0.25119 -0.99385,0.25119 -1.91125,0.75358 l 0,-1.85664 q 1.10306,-0.42594 2.1406,-0.63345 1.03753,-0.21843 2.02046,-0.21843 2.65391,0 3.96448,1.3761 1.31058,1.37611 1.31058,4.17199 z" />
        <path
           id="path227"
           style="font-size:22.36709976px;font-family:g_font_1;fill:#000000"
           d="m 751.49413,580.66134 2.00954,0 0,16.99375 -2.00954,0 0,-16.99375 z" />
        <path
           id="path229"
           style="font-size:22.36709976px;font-family:g_font_1;fill:#000000"
           d="m 762.01337,592.82782 0,-7.40474 2.00954,0 0,7.32829 q 0,1.7365 0.67713,2.61022 0.67713,0.86279 2.03139,0.86279 1.62729,0 2.56653,-1.03753 0.95017,-1.03754 0.95017,-2.82866 l 0,-6.93511 2.00954,0 0,12.23201 -2.00954,0 0,-1.87849 q -0.73174,1.11399 -1.70374,1.66006 -0.96109,0.53515 -2.2389,0.53515 -2.10784,0 -3.19998,-1.31057 -1.09214,-1.31057 -1.09214,-3.83342 z" />
        <path
           id="path231"
           style="font-size:22.36709976px;font-family:g_font_1;fill:#000000"
           d="m 781.59166,585.78349 0,1.90033 q -0.85188,-0.43686 -1.76928,-0.65529 -0.9174,-0.21843 -1.90033,-0.21843 -1.49623,0 -2.24981,0.45871 -0.74266,0.4587 -0.74266,1.3761 0,0.69897 0.53515,1.10306 0.53515,0.39317 2.15152,0.75358 l 0.68805,0.1529 q 2.1406,0.4587 3.03616,1.29965 0.90648,0.83003 0.90648,2.32627 0,1.70374 -1.35426,2.69759 -1.34333,0.99385 -3.70236,0.99385 -0.98293,0 -2.05323,-0.19658 -1.05938,-0.18567 -2.2389,-0.56792 l 0,-2.07507 q 1.11399,0.57883 2.19521,0.87371 1.08122,0.28396 2.1406,0.28396 1.41979,0 2.18429,-0.48054 0.7645,-0.49147 0.7645,-1.3761 0,-0.81911 -0.55699,-1.25597 -0.54608,-0.43686 -2.41364,-0.84095 l -0.69897,-0.16382 q -1.86757,-0.39317 -2.6976,-1.20136 -0.83003,-0.81911 -0.83003,-2.23889 0,-1.72559 1.2232,-2.66483 1.22321,-0.93925 3.47302,-0.93925 1.11399,0 2.09692,0.16383 0.98293,0.16382 1.81296,0.49146 z" />
        <path
           id="path233"
           style="font-size:22.36709976px;font-family:g_font_1;fill:#000000"
           d="m 794.29768,591.0367 0,0.98293 -9.23953,0 q 0.13106,2.07507 1.24504,3.16722 1.12491,1.08122 3.12353,1.08122 1.15768,0 2.2389,-0.28396 1.09214,-0.28396 2.16244,-0.85187 l 0,1.90033 q -1.08122,0.4587 -2.21705,0.69897 -1.13583,0.24027 -2.30442,0.24027 -2.92695,0 -4.64161,-1.70374 -1.70375,-1.70375 -1.70375,-4.60885 0,-3.00339 1.61638,-4.76174 1.62729,-1.76928 4.37949,-1.76928 2.46825,0 3.89895,1.59453 1.44163,1.58361 1.44163,4.31397 z m -2.00954,-0.58976 q -0.0218,-1.64913 -0.92832,-2.63206 -0.89556,-0.98293 -2.38088,-0.98293 -1.6819,0 -2.69759,0.95016 -1.00477,0.95017 -1.15767,2.67575 l 7.16446,-0.0109 z" />
        <path
           id="path235"
           style="font-size:22.36709976px;font-family:g_font_1;fill:#000000"
           d="m 795.18324,594.88105 2.30442,0 0,2.77404 -2.30442,0 0,-2.77404 z" />
        <path
           id="path237"
           style="font-size:22.36709976px;font-family:g_font_1;fill:#000000"
           d="m 811.51042,583.52275 -2.99247,8.11463 5.99587,0 -3.0034,-8.11463 z m -1.24504,-2.17336 2.50101,0 6.21429,16.3057 -2.2935,0 -1.48531,-4.18291 -7.35013,0 -1.48531,4.18291 -2.32627,0 6.22522,-16.3057 z" />
        <path
           id="path239"
           style="font-size:22.36709976px;font-family:g_font_1;fill:#000000"
           d="m 828.73895,590.2722 0,7.38289 -2.00954,0 0,-7.31736 q 0,-1.73651 -0.67713,-2.5993 -0.67713,-0.8628 -2.03139,-0.8628 -1.62729,0 -2.56654,1.03754 -0.93924,1.03754 -0.93924,2.82865 l 0,6.91327 -2.02047,0 0,-12.23201 2.02047,0 0,1.90033 q 0.72081,-1.10306 1.69282,-1.64913 0.98293,-0.54608 2.26074,-0.54608 2.10784,0 3.18906,1.31058 1.08122,1.29965 1.08122,3.83342 z" />
        <path
           id="path241"
           style="font-size:22.36709976px;font-family:g_font_1;fill:#000000"
           d="m 830.14666,585.42308 2.00954,0 0,12.23201 -2.00954,0 0,-12.23201 z m 0,-4.76174 2.00954,0 0,2.54469 -2.00954,0 0,-2.54469 z" />
        <path
           id="path243"
           style="font-size:22.36709976px;font-family:g_font_1;fill:#000000"
           d="m 844.43711,587.77119 q 0.75358,-1.35426 1.80204,-1.99862 1.04846,-0.64437 2.46825,-0.64437 1.91125,0 2.94878,1.34334 1.03754,1.33242 1.03754,3.80066 l 0,7.38289 -2.02047,0 0,-7.31736 q 0,-1.75835 -0.62252,-2.61022 -0.62252,-0.85188 -1.90033,-0.85188 -1.56176,0 -2.46824,1.03754 -0.90648,1.03754 -0.90648,2.82865 l 0,6.91327 -2.02047,0 0,-7.31736 q 0,-1.76927 -0.62252,-2.61022 -0.62252,-0.85188 -1.92217,-0.85188 -1.53992,0 -2.4464,1.04846 -0.90648,1.03754 -0.90648,2.81773 l 0,6.91327 -2.02047,0 0,-12.23201 2.02047,0 0,1.90033 q 0.68805,-1.12491 1.64914,-1.66006 0.96108,-0.53515 2.28258,-0.53515 1.33241,0 2.26073,0.67713 0.93925,0.67713 1.38702,1.96586 z" />
        <path
           id="path245"
           style="font-size:22.36709976px;font-family:g_font_1;fill:#000000"
           d="m 858.15891,591.50632 q -2.43548,0 -3.37472,0.557 -0.93924,0.55699 -0.93924,1.90033 0,1.0703 0.69897,1.70374 0.70989,0.62252 1.92217,0.62252 1.67098,0 2.67575,-1.17951 1.0157,-1.19044 1.0157,-3.1563 l 0,-0.44778 -1.99863,0 z m 4.00817,-0.83003 0,6.9788 -2.00954,0 0,-1.85664 q -0.68805,1.11398 -1.71467,1.64913 -1.02661,0.52423 -2.51193,0.52423 -1.87849,0 -2.99247,-1.04846 -1.10307,-1.05938 -1.10307,-2.82865 0,-2.06415 1.3761,-3.11261 1.38703,-1.04845 4.12831,-1.04845 l 2.81773,0 0,-0.19659 q 0,-1.38702 -0.9174,-2.1406 -0.90648,-0.7645 -2.55562,-0.7645 -1.04846,0 -2.04231,0.25119 -0.99385,0.25119 -1.91125,0.75358 l 0,-1.85664 q 1.10306,-0.42594 2.1406,-0.63345 1.03754,-0.21843 2.02047,-0.21843 2.65391,0 3.96448,1.3761 1.31057,1.37611 1.31057,4.17199 z" />
        <path
           id="path247"
           style="font-size:22.36709976px;font-family:g_font_1;fill:#000000"
           d="m 863.32689,580.66134 2.00955,0 0,16.99375 -2.00955,0 0,-16.99375 z" />
        <path
           id="path249"
           style="font-size:22.36709976px;font-family:g_font_1;fill:#000000"
           d="m 868.17861,581.34939 2.97063,0 7.22999,13.64087 0,-13.64087 2.1406,0 0,16.3057 -2.97063,0 -7.22999,-13.64087 0,13.64087 -2.1406,0 0,-16.3057 z" />
        <path
           id="path251"
           style="font-size:22.36709976px;font-family:g_font_1;fill:#000000"
           d="m 886.60079,586.83195 q -1.61637,0 -2.55561,1.26688 -0.93925,1.25597 -0.93925,3.45118 0,2.19521 0.92832,3.46209 0.93925,1.25597 2.56654,1.25597 1.60545,0 2.5447,-1.26689 0.93924,-1.26688 0.93924,-3.45117 0,-2.17337 -0.93924,-3.44025 -0.93925,-1.27781 -2.5447,-1.27781 z m 0,-1.70375 q 2.62115,0 4.11738,1.70375 1.49624,1.70374 1.49624,4.71806 0,3.00339 -1.49624,4.71806 -1.49623,1.70374 -4.11738,1.70374 -2.63206,0 -4.1283,-1.70374 -1.48532,-1.71467 -1.48532,-4.71806 0,-3.01432 1.48532,-4.71806 1.49624,-1.70375 4.1283,-1.70375 z" />
        <path
           id="path253"
           style="font-size:22.36709976px;font-family:g_font_1;fill:#000000"
           d="m 895.42385,581.95007 0,3.47301 4.13922,0 0,1.56177 -4.13922,0 0,6.64023 q 0,1.49624 0.40409,1.92217 0.41501,0.42594 1.67098,0.42594 l 2.06415,0 0,1.6819 -2.06415,0 q -2.32627,0 -3.2109,-0.86279 -0.88464,-0.87372 -0.88464,-3.16722 l 0,-6.64023 -1.47439,0 0,-1.56177 1.47439,0 0,-3.47301 2.02047,0 z" />
        <path
           id="path255"
           style="font-size:22.36709976px;font-family:g_font_1;fill:#000000"
           d="m 910.53749,591.0367 0,0.98293 -9.23953,0 q 0.13105,2.07507 1.24504,3.16722 1.12491,1.08122 3.12353,1.08122 1.15767,0 2.2389,-0.28396 1.09214,-0.28396 2.16244,-0.85187 l 0,1.90033 q -1.08122,0.4587 -2.21705,0.69897 -1.13583,0.24027 -2.30442,0.24027 -2.92695,0 -4.64161,-1.70374 -1.70375,-1.70375 -1.70375,-4.60885 0,-3.00339 1.61637,-4.76174 1.6273,-1.76928 4.3795,-1.76928 2.46824,0 3.89895,1.59453 1.44163,1.58361 1.44163,4.31397 z m -2.00954,-0.58976 q -0.0219,-1.64913 -0.92833,-2.63206 -0.89555,-0.98293 -2.38087,-0.98293 -1.6819,0 -2.69759,0.95016 -1.00477,0.95017 -1.15767,2.67575 l 7.16446,-0.0109 z" />
        <path
           id="path257"
           style="font-size:22.36709976px;font-family:g_font_1;fill:#000000"
           d="m 911.22615,581.34939 2.20613,0 0,6.68392 8.01634,0 0,-6.68392 2.20613,0 0,16.3057 -2.20613,0 0,-7.76514 -8.01634,0 0,7.76514 -2.20613,0 0,-16.3057 z" />
        <path
           id="path259"
           style="font-size:22.36709976px;font-family:g_font_1;fill:#000000"
           d="m 935.19624,591.0367 0,0.98293 -9.23953,0 q 0.13106,2.07507 1.24504,3.16722 1.12491,1.08122 3.12353,1.08122 1.15768,0 2.2389,-0.28396 1.09214,-0.28396 2.16244,-0.85187 l 0,1.90033 q -1.08122,0.4587 -2.21705,0.69897 -1.13583,0.24027 -2.30442,0.24027 -2.92695,0 -4.64161,-1.70374 -1.70375,-1.70375 -1.70375,-4.60885 0,-3.00339 1.61638,-4.76174 1.62729,-1.76928 4.37949,-1.76928 2.46825,0 3.89895,1.59453 1.44163,1.58361 1.44163,4.31397 z m -2.00954,-0.58976 q -0.0218,-1.64913 -0.92832,-2.63206 -0.89556,-0.98293 -2.38088,-0.98293 -1.6819,0 -2.69759,0.95016 -1.00477,0.95017 -1.15767,2.67575 l 7.16446,-0.0109 z" />
        <path
           id="path261"
           style="font-size:22.36709976px;font-family:g_font_1;fill:#000000"
           d="m 941.35661,591.50632 q -2.43548,0 -3.37473,0.557 -0.93924,0.55699 -0.93924,1.90033 0,1.0703 0.69897,1.70374 0.70989,0.62252 1.92217,0.62252 1.67098,0 2.67576,-1.17951 1.01569,-1.19044 1.01569,-3.1563 l 0,-0.44778 -1.99862,0 z m 4.00816,-0.83003 0,6.9788 -2.00954,0 0,-1.85664 q -0.68805,1.11398 -1.71467,1.64913 -1.02661,0.52423 -2.51193,0.52423 -1.87848,0 -2.99247,-1.04846 -1.10307,-1.05938 -1.10307,-2.82865 0,-2.06415 1.37611,-3.11261 1.38702,-1.04845 4.1283,-1.04845 l 2.81773,0 0,-0.19659 q 0,-1.38702 -0.9174,-2.1406 -0.90648,-0.7645 -2.55562,-0.7645 -1.04846,0 -2.04231,0.25119 -0.99385,0.25119 -1.91125,0.75358 l 0,-1.85664 q 1.10307,-0.42594 2.1406,-0.63345 1.03754,-0.21843 2.02047,-0.21843 2.65391,0 3.96448,1.3761 1.31057,1.37611 1.31057,4.17199 z" />
        <path
           id="path263"
           style="font-size:22.36709976px;font-family:g_font_1;fill:#000000"
           d="m 954.57362,587.27973 0,-6.61839 2.00955,0 0,16.99375 -2.00955,0 0,-1.8348 q -0.63344,1.09214 -1.60545,1.62729 -0.96109,0.52423 -2.31534,0.52423 -2.21705,0 -3.615,-1.76927 -1.38702,-1.76927 -1.38702,-4.65253 0,-2.88326 1.38702,-4.65253 1.39795,-1.76928 3.615,-1.76928 1.35425,0 2.31534,0.53515 0.97201,0.52423 1.60545,1.61638 z m -6.84774,4.27028 q 0,2.21705 0.90648,3.48394 0.9174,1.25596 2.51193,1.25596 1.59453,0 2.51193,-1.25596 0.9174,-1.26689 0.9174,-3.48394 0,-2.21705 -0.9174,-3.47302 -0.9174,-1.26689 -2.51193,-1.26689 -1.59453,0 -2.51193,1.26689 -0.90648,1.25597 -0.90648,3.47302 z" />
        <path
           id="path265"
           style="font-size:22.36709976px;font-family:g_font_1;fill:#000000"
           d="m 966.05894,585.78349 0,1.90033 q -0.85187,-0.43686 -1.76927,-0.65529 -0.9174,-0.21843 -1.90033,-0.21843 -1.49624,0 -2.24982,0.45871 -0.74266,0.4587 -0.74266,1.3761 0,0.69897 0.53515,1.10306 0.53516,0.39317 2.15153,0.75358 l 0.68805,0.1529 q 2.1406,0.4587 3.03616,1.29965 0.90648,0.83003 0.90648,2.32627 0,1.70374 -1.35426,2.69759 -1.34334,0.99385 -3.70237,0.99385 -0.98293,0 -2.05323,-0.19658 -1.05938,-0.18567 -2.23889,-0.56792 l 0,-2.07507 q 1.11398,0.57883 2.19521,0.87371 1.08122,0.28396 2.1406,0.28396 1.41978,0 2.18428,-0.48054 0.76451,-0.49147 0.76451,-1.3761 0,-0.81911 -0.557,-1.25597 -0.54607,-0.43686 -2.41364,-0.84095 l -0.69897,-0.16382 q -1.86756,-0.39317 -2.69759,-1.20136 -0.83003,-0.81911 -0.83003,-2.23889 0,-1.72559 1.2232,-2.66483 1.2232,-0.93925 3.47302,-0.93925 1.11398,0 2.09691,0.16383 0.98293,0.16382 1.81296,0.49146 z" />
        <path
           id="path267"
           style="font-size:22.36709976px;font-family:g_font_1;fill:#000000"
           d="m 968.58619,594.88105 2.30442,0 0,2.77404 -2.30442,0 0,-2.77404 z" />
        <path
           id="path269"
           style="font-size:22.36709976px;font-family:g_font_1;fill:#000000"
           d="m 982.21642,585.8927 0,1.87849 q -0.85187,-0.46962 -1.71466,-0.69897 -0.85188,-0.24027 -1.72559,-0.24027 -1.95494,0 -3.03616,1.24504 -1.08122,1.23412 -1.08122,3.47302 0,2.23889 1.08122,3.48394 1.08122,1.23412 3.03616,1.23412 0.87371,0 1.72559,-0.22935 0.86279,-0.24027 1.71466,-0.7099 l 0,1.85665 q -0.84095,0.39317 -1.74743,0.58976 -0.89556,0.19658 -1.91125,0.19658 -2.76312,0 -4.39042,-1.73651 -1.62729,-1.7365 -1.62729,-4.68529 0,-2.99248 1.63822,-4.70714 1.64913,-1.71467 4.51055,-1.71467 0.92832,0 1.81296,0.19659 0.88463,0.18566 1.71466,0.56791 z" />
        <path
           id="path271"
           style="font-size:22.36709976px;font-family:g_font_1;fill:#000000"
           d="m 988.35513,586.83195 q -1.61638,0 -2.55562,1.26688 -0.93924,1.25597 -0.93924,3.45118 0,2.19521 0.92832,3.46209 0.93924,1.25597 2.56654,1.25597 1.60545,0 2.54469,-1.26689 0.93924,-1.26688 0.93924,-3.45117 0,-2.17337 -0.93924,-3.44025 -0.93924,-1.27781 -2.54469,-1.27781 z m 0,-1.70375 q 2.62114,0 4.11738,1.70375 1.49623,1.70374 1.49623,4.71806 0,3.00339 -1.49623,4.71806 -1.49624,1.70374 -4.11738,1.70374 -2.63207,0 -4.12831,-1.70374 -1.48531,-1.71467 -1.48531,-4.71806 0,-3.01432 1.48531,-4.71806 1.49624,-1.70375 4.12831,-1.70375 z" />
        <path
           id="path273"
           style="font-size:22.36709976px;font-family:g_font_1;fill:#000000"
           d="m 1004.7142,587.77119 q 0.7536,-1.35426 1.8021,-1.99862 1.0484,-0.64437 2.4682,-0.64437 1.9112,0 2.9488,1.34334 1.0375,1.33242 1.0375,3.80066 l 0,7.38289 -2.0204,0 0,-7.31736 q 0,-1.75835 -0.6226,-2.61022 -0.6225,-0.85188 -1.9003,-0.85188 -1.5618,0 -2.4682,1.03754 -0.9065,1.03754 -0.9065,2.82865 l 0,6.91327 -2.0205,0 0,-7.31736 q 0,-1.76927 -0.6225,-2.61022 -0.6225,-0.85188 -1.9222,-0.85188 -1.5399,0 -2.44638,1.04846 -0.90648,1.03754 -0.90648,2.81773 l 0,6.91327 -2.02047,0 0,-12.23201 2.02047,0 0,1.90033 q 0.68805,-1.12491 1.64914,-1.66006 0.96108,-0.53515 2.28262,-0.53515 1.3324,0 2.2607,0.67713 0.9392,0.67713 1.387,1.96586 z" />
      </g>
    </g>
    <g
       id="g26"
       transform="scale(0.0772924,0.0772924)" />
    <g
       id="g28" />
  </g>
</svg>
